<svg xmlns="http://www.w3.org/2000/svg" viewBox="0 0 512 512">
  <path d="M502 10.2H10a10 10 0 00-10 10v103a10 10 0 0010 10h492a10 10 0 0010-10v-103a10 10 0 00-10-10zm-10 103H20v-83h472v83z"/>
  <path d="M469.4 90.4l-8.2-8.2a31.8 31.8 0 00-5.9-37 32 32 0 10-8.2 51.2l8.2 8.1c2 2 4.5 3 7 3s5.2-1 7.1-3c4-3.9 4-10.2 0-14.1zm-28.2-14.1a11.9 11.9 0 01-17 0 11.9 11.9 0 010-17 12 12 0 0120.5 8.5c0 3.2-1.3 6.2-3.5 8.5zM358.3 87.8a10 10 0 00-11.7-7.8 10.1 10.1 0 00-7.9 7.8 10 10 0 004.3 10.3 10.1 10.1 0 007.5 1.5 10 10 0 007.8-11.8zM310.6 79.8H102.8a10 10 0 000 20h207.8a10 10 0 000-20zM314.8 147.4H11.2a10 10 0 00-10 10v197.2a10 10 0 0010 10h303.6a10 10 0 0010-10V157.4a10 10 0 00-10-10zm-193 197.2H37l57.2-66.2 41.4 48-13.7 18.2zm25 0l18.7-24.9h48.4a10 10 0 000-20h-33.4l7-9.4h62.8l40.6 54.3H147zm55.7-74.3l16.4-21.8 16.4 21.8h-32.8zm102.3 59.5l-78-104a10 10 0 00-16 0l-63 84.1-46.1-53.4a10 10 0 00-15.2 0l-65.3 75.7V167.4h283.6v162.4z"/>
  <path d="M137.6 178.8a35.4 35.4 0 10.1 70.8 35.4 35.4 0 000-70.8zm0 50.8a15.4 15.4 0 110-30.8 15.4 15.4 0 010 30.8zM502 147.4H348.3a10 10 0 00-10 10v197.2a10 10 0 0010 10H502a10 10 0 0010-10V157.4a10 10 0 00-10-10zm-10 197.2H358.3V167.4H492v177.2z"/>
  <path d="M468.7 183.8h-87.1a10 10 0 000 20h87.1a10 10 0 000-20zM468.7 224h-87.1a10 10 0 000 20h87.1a10 10 0 000-20zM468.7 264.1h-87.1a10 10 0 000 20h87.1a10 10 0 000-20zM391.4 312.3a10 10 0 00-11.8-7.9 10.1 10.1 0 00-7.8 7.9 10 10 0 007.8 11.7 10 10 0 0011.8-11.7zM468.7 304.2h-49.2a10 10 0 000 20h49.2a10 10 0 000-20zM164.9 378.8H11.2a10 10 0 00-10 10v103a10 10 0 0010 10h153.7a10 10 0 0010-10v-103a10 10 0 00-10-10zm-10 103H21.2v-83h133.7v83zM502 378.8H199.7a10 10 0 00-10 10v103a10 10 0 0010 10H502a10 10 0 0010-10v-103a10 10 0 00-10-10zm-10 103H209.7v-83H492v83z"/>
  <path d="M255.3 438.3a10.1 10.1 0 00-7.9-7.9 10.3 10.3 0 00-5.7.6 10.2 10.2 0 00-5.5 5.4 10.1 10.1 0 000 7.7 10.1 10.1 0 002.2 3.2 10 10 0 0014.2 0 9.6 9.6 0 002.1-3.2 10.4 10.4 0 00.6-5.8zM451.3 430.3h-168a10 10 0 000 20h168a10 10 0 000-20z"/>
</svg>
