<svg xmlns="http://www.w3.org/2000/svg" viewBox="0 0 424 424">
  <path d="M167.3 272.1a7 7 0 01-4.5-1.6l-45.3-38.6a7 7 0 010-10.7l45.3-38.5a7 7 0 119 10.6l-39 33.3 39 33.2a7 7 0 01-4.5 12.3zm0 0M256.7 272.1c-2 0-4-.8-5.3-2.4a7 7 0 01.8-9.9l39-33.2-39-33.3a7 7 0 019-10.6l45.3 38.5a7 7 0 010 10.7l-45.3 38.6a7 7 0 01-4.5 1.6zm0 0M196 301h-1.5a7 7 0 01-5.4-8.4l28.2-134a7 7 0 0113.7 2.9l-28.2 134a7 7 0 01-6.8 5.6zm0 0"/>
  <path d="M377 374H47c-26 0-47-21-47-47V47C0 21 21 0 47 0h330c26 0 47 21 47 47v280c0 26-21 47-47 47zM47 14a33 33 0 00-33 33v280a33 33 0 0033 33h330a33 33 0 0033-33V47a33 33 0 00-33-33zm0 0"/>
  <path d="M417 112H7a7 7 0 110-14h410a7 7 0 010 14zm0 0M119.6 78.6a22.2 22.2 0 110-44.4 22.2 22.2 0 010 44.4zm0-30.3a8.2 8.2 0 100 16.3 8.2 8.2 0 000-16.3zm0 0M51.5 78.4a22.2 22.2 0 110-44.4 22.2 22.2 0 010 44.4zm0-30.3a8.2 8.2 0 100 16.3 8.2 8.2 0 000-16.3zm0 0M187.7 78.8a22.2 22.2 0 110-44.3 22.2 22.2 0 010 44.3zm0-30.3a8.2 8.2 0 100 16.3 8.2 8.2 0 000-16.3zm0 0"/>
</svg>
