<svg  viewBox="0 0 936 603" fill="none" xmlns="http://www.w3.org/2000/svg">
  <path d="M784.5 501.2H122.8a19.4 19.4 0 01-19.4-19.4V48.3c0-5.7 4.7-10.3 10.4-10.3h681.1c5 0 9 4 9 9v434.8c0 10.8-8.7 19.4-19.4 19.4z" fill="#375A64"/>
  <path d="M814.8 507.5H92.4a18.3 18.3 0 01-18.3-18.3V467h759v22.2c0 10.1-8.2 18.3-18.3 18.3z" fill="#375A64"/>
  <path d="M783.2 447.6h-661V56.4h661v391.2z" fill="#E1E1E1"/>
  <path d="M384.6 467l9.4 15h132.6l8.7-15H384.6z" fill="#000E14"/>
  <path d="M765.2 447.6H141.8V79.1h623.4v368.5z" fill="#30424B"/>
  <path d="M189.7 436.8c-.4 0-.6-78.5-.6-175.3 0-96.8.2-175.3.6-175.3.3 0 .5 78.5.5 175.3 0 96.8-.2 175.3-.5 175.3zM177 118c0 .3-4.4.6-10 .6s-10.2-.3-10.2-.6 4.6-.6 10.2-.6 10 .3 10 .6zM177.9 98c0 .4-4.6.7-10.2.7-5.5 0-10-.3-10-.6s4.5-.6 10-.6c5.6 0 10.2.3 10.2.6zM177 139.4c0 .3-4.4.6-10 .6s-10.2-.3-10.2-.6 4.6-.6 10.2-.6 10 .3 10 .6zM177 160.9c0 .3-4.4.5-10 .5s-10.2-.2-10.2-.5c0-.4 4.6-.6 10.2-.6s10 .2 10 .6zM177 182.3c0 .3-4.4.6-10 .6s-10.2-.3-10.2-.6 4.6-.6 10.2-.6 10 .3 10 .6zM177 203.8c0 .3-4.4.5-10 .5s-10.2-.2-10.2-.5c0-.4 4.6-.6 10.2-.6s10 .2 10 .6zM177 225.2c0 .3-4.4.6-10 .6s-10.2-.3-10.2-.6 4.6-.6 10.2-.6 10 .3 10 .6zM177 246.6c0 .4-4.4.6-10 .6s-10.2-.2-10.2-.6c0-.3 4.6-.5 10.2-.5s10 .2 10 .5zM177 268c0 .4-4.4.7-10 .7s-10.2-.3-10.2-.6 4.6-.6 10.2-.6 10 .3 10 .6zM177 289.5c0 .3-4.4.6-10 .6s-10.2-.3-10.2-.6 4.6-.6 10.2-.6 10 .3 10 .6zM177 311c0 .3-4.4.6-10 .6s-10.2-.3-10.2-.6c0-.4 4.6-.6 10.2-.6s10 .2 10 .6zM177 332.4c0 .3-4.4.6-10 .6s-10.2-.3-10.2-.6 4.6-.6 10.2-.6 10 .3 10 .6zM177 353.9c0 .3-4.4.5-10 .5s-10.2-.2-10.2-.5c0-.4 4.6-.6 10.2-.6s10 .2 10 .6zM177 375.3c0 .3-4.4.6-10 .6s-10.2-.3-10.2-.6 4.6-.6 10.2-.6 10 .3 10 .6zM177 396.7c0 .4-4.4.6-10 .6s-10.2-.2-10.2-.6c0-.3 4.6-.5 10.2-.5s10 .2 10 .5zM177 418.2c0 .3-4.4.6-10 .6s-10.2-.3-10.2-.6 4.6-.6 10.2-.6 10 .3 10 .6z" fill="#E1E1E1"/>
  <path d="M258.3 116.7c0 .3-11.8.6-26.3.6s-26.3-.3-26.3-.6 11.8-.6 26.3-.6 26.3.3 26.3.6zM258.3 418.2c0 .3-11.8.6-26.3.6s-26.3-.3-26.3-.6 11.8-.6 26.3-.6 26.3.3 26.3.6zM331.4 160.9c0 .3-22 .5-49.1.5-27.2 0-49.2-.2-49.2-.5 0-.4 22-.6 49.2-.6 27.1 0 49.1.2 49.1.6z" fill="#FBFF2E"/>
  <path d="M445.1 160.9c0 .3-22 .5-49.1.5-27.2 0-49.2-.2-49.2-.5 0-.4 22-.6 49.2-.6 27.1 0 49.1.2 49.1.6zM401.7 182.3c0 .3-32.5.6-72.5.6s-72.4-.3-72.4-.6 32.4-.6 72.4-.6c40 0 72.5.3 72.5.6zM401.7 203.8c0 .3-32.5.5-72.5.5s-72.4-.2-72.4-.5c0-.4 32.4-.6 72.4-.6 40 0 72.5.2 72.5.6zM501.4 268c0 .4-32.4.7-72.4.7-40 0-72.5-.3-72.5-.6s32.5-.6 72.5-.6 72.4.3 72.4.6zM458.4 225.2c0 .3-32.5.6-72.5.6s-72.4-.3-72.4-.6 32.4-.6 72.4-.6c40 0 72.5.3 72.5.6zM635.5 225.2c0 .3-32.5.6-72.5.6s-72.4-.3-72.4-.6 32.4-.6 72.4-.6c40 0 72.5.3 72.5.6z" fill="#E1E1E1"/>
  <path d="M573.9 182.3c0 .3-32.5.6-72.5.6s-72.4-.3-72.4-.6 32.4-.6 72.4-.6c40 0 72.5.3 72.5.6zM674 268c0 .4-32.5.7-72.5.7s-72.4-.3-72.4-.6 32.4-.6 72.4-.6c40 0 72.5.3 72.5.6z" fill="#FAFAFA"/>
  <path d="M654 203.8c0 .3-50.4.5-112.5.5a5419 5419 0 01-112.5-.5c0-.4 50.3-.6 112.5-.6 62.1 0 112.5.2 112.5.6z" fill="#375A64"/>
  <path d="M258.3 139.4c0 .3-11.8.6-26.3.6s-26.3-.3-26.3-.6 11.8-.6 26.3-.6 26.3.3 26.3.6zM258.3 396.7c0 .4-11.8.6-26.3.6s-26.3-.2-26.3-.6c0-.3 11.8-.5 26.3-.5s26.3.2 26.3.5zM284.3 225.2c0 .3-11.8.6-26.3.6s-26.3-.3-26.3-.6 11.8-.6 26.3-.6 26.3.3 26.3.6z" fill="#FAFAFA"/>
  <path d="M705.5 225.2c0 .3-11.8.6-26.3.6s-26.3-.3-26.3-.6 11.8-.6 26.3-.6 26.3.3 26.3.6zM331.4 310.8c0 .4-22 .6-49.1.6-27.2 0-49.2-.2-49.2-.6 0-.3 22-.5 49.2-.5 27.1 0 49.1.2 49.1.5z" fill="#FBFF2E"/>
  <path d="M445.1 310.8c0 .4-22 .6-49.1.6-27.2 0-49.2-.2-49.2-.6 0-.3 22-.5 49.2-.5 27.1 0 49.1.2 49.1.5zM401.7 332.3c0 .3-32.5.6-72.5.6s-72.4-.3-72.4-.6 32.4-.6 72.4-.6c40 0 72.5.3 72.5.6zM401.7 353.7c0 .4-32.5.6-72.5.6s-72.4-.2-72.4-.6c0-.3 32.4-.6 72.4-.6 40 0 72.5.3 72.5.6zM458.4 375.2c0 .3-32.5.6-72.5.6s-72.4-.3-72.4-.6 32.4-.6 72.4-.6c40 0 72.5.3 72.5.6zM635.5 375.2c0 .3-32.5.6-72.5.6s-72.4-.3-72.4-.6 32.4-.6 72.4-.6c40 0 72.5.3 72.5.6z" fill="#E1E1E1"/>
  <path d="M573.9 332.3c0 .3-32.5.6-72.5.6s-72.4-.3-72.4-.6 32.4-.6 72.4-.6c40 0 72.5.3 72.5.6z" fill="#FAFAFA"/>
  <path d="M654 353.7c0 .4-50.4.6-112.5.6-62.2 0-112.5-.2-112.5-.6 0-.3 50.3-.6 112.5-.6 62.1 0 112.5.3 112.5.6z" fill="#375A64"/>
  <path d="M284.3 375.2c0 .3-11.8.6-26.3.6s-26.3-.3-26.3-.6 11.8-.6 26.3-.6 26.3.3 26.3.6z" fill="#FAFAFA"/>
  <path d="M705.5 375.2c0 .3-11.8.6-26.3.6s-26.3-.3-26.3-.6 11.8-.6 26.3-.6 26.3.3 26.3.6z" fill="#FBFF2E"/>
  <path d="M719.5 480.5c0 .2-134.2.4-299.7.4s-299.7-.2-299.7-.4 134.2-.3 299.7-.3 299.7.1 299.7.3z" fill="#000E14"/>
  <path d="M203.4 141.3H.4V5.3h203v136z" fill="#fff"/>
  <path d="M203.4 141.3v-2.5a18128.7 18128.7 0 01-.3-133.5l.3.3-203 .1.3-.4v136l-.3-.3 146.3.1 41.8.1h14l1 .1h-14.9l-41.7.2-146.5.1H0v-.3V5H203.7v.3a4562514.4 4562514.4 0 00-.2 126.5v9.5z" fill="#E1E1E1"/>
  <path d="M.4 17.5c0-.2 45.4-.4 101.4-.4 56 0 101.5.2 101.5.4s-45.5.3-101.5.3S.4 17.7.4 17.5z" fill="#E1E1E1"/>
  <path opacity=".3" d="M8.4 11.4a1.6 1.6 0 11-3.3 0 1.6 1.6 0 013.3 0zM14 11.4a1.6 1.6 0 11-3.3 0 1.6 1.6 0 013.3 0zM19.4 11.4a1.6 1.6 0 11-3.2 0 1.6 1.6 0 013.2 0z" fill="#E1E1E1"/>
  <path d="M72 85.8H17.8V31.7H72v54.1zM175.6 47c0 .2-21.1.3-47.2.3-26 0-47.2-.1-47.2-.3 0-.2 21.1-.4 47.2-.4 26 0 47.2.2 47.2.4zM175.6 57c0 .2-21.1.4-47.2.4-26 0-47.2-.2-47.2-.4s21.1-.3 47.2-.3c26 0 47.2.1 47.2.3zM175.6 67.1c0 .2-21.1.4-47.2.4-26 0-47.2-.2-47.2-.4s21.1-.4 47.2-.4c26 0 47.2.2 47.2.4zM137 77.2l-2.2.1-6 .1a1584.4 1584.4 0 01-39.4 0h-6l-2.2-.2 2.2-.2h6a1614.4 1614.4 0 0139.4 0h6c1.4 0 2.2.1 2.2.2zM46.7 129.5H21.2v-25.4h25.5v25.4zM92.8 129.5H67.4v-25.4h25.4v25.4zM139 129.5h-25.5v-25.4H139v25.4zM185.2 129.5h-25.5v-25.4h25.5v25.4z" fill="#E1E1E1"/>
  <path d="M789.6.7H432.3V222h300.8l18.6 42.9 16.5-42.9h21.4V.7z" fill="#FAFAFA"/>
  <path d="M789.6.7L790 222v.3h-21.7l.3-.2L752 265l-.3.6-.2-.6-18.7-42.9.3.2H432v-.3V.4h.3l357.3.3-357.3.3.3-.3V222l-.3-.3h301v.2l18.7 42.8h-.5L768 222v-.2H789.6l-.2.3.2-221.3z" fill="#000E14"/>
  <path d="M789.4 22.3c0 .3-79.8.5-178.3.5-98.4 0-178.3-.2-178.3-.5s79.9-.5 178.3-.5c98.5 0 178.3.2 178.3.5zM451.3 12.5a3 3 0 11-5.9 0 3 3 0 015.9 0zM461.9 12.5a3 3 0 11-5.9 0 3 3 0 015.9 0zM472.5 12.5a3 3 0 11-5.9 0 3 3 0 015.9 0zM471.3 61.9l-8.5 3.3 8.5 3.2v2l-10.7-4.2v-2l10.7-4.3v2zM480.1 53.4h2L474.4 76h-2l7.8-22.5zM493.6 64.1v2.1L483 70.4v-2l8.5-3.2-8.5-3.3v-2l10.7 4.2zM496.3 72c0-1 .8-1.6 1.6-1.6 1 0 1.6.7 1.6 1.6 0 1-.7 1.7-1.6 1.7-.8 0-1.6-.7-1.6-1.7zM501.8 72c0-1 .7-1.6 1.6-1.6.8 0 1.6.7 1.6 1.6 0 1-.8 1.7-1.6 1.7-1 0-1.6-.7-1.6-1.7zM507.2 72c0-1 .7-1.6 1.6-1.6.9 0 1.6.7 1.6 1.6 0 1-.7 1.7-1.6 1.7-.9 0-1.6-.7-1.6-1.7z" fill="#000E14"/>
  <path d="M697 93.5c0 .3-53 .5-118 .5-65.2 0-118-.2-118-.5s52.8-.5 118-.5c65 0 118 .2 118 .5z" fill="#375A64"/>
  <path d="M735.4 94.2c0 .3-5 .5-11.3.5-6.3 0-11.3-.2-11.3-.5s5-.5 11.3-.5c6.3 0 11.3.2 11.3.5zM768.6 94.2c0 .3-5.6.5-12.4.5a79 79 0 01-12.4-.5c0-.3 5.6-.5 12.4-.5a79 79 0 0112.4.5z" fill="#000E14"/>
  <path d="M611.2 113.4c0 .2-33.6.5-75 .5s-75-.3-75-.5c0-.3 33.6-.5 75-.5s75 .2 75 .5zM610.1 187.6c0 .2-33.5.4-75 .4-41.4 0-75-.2-75-.4 0-.3 33.6-.5 75-.5 41.5 0 75 .2 75 .5z" fill="#375A64"/>
  <path d="M665.7 113.4c0 .2-9.1.5-20.4.5-11.3 0-20.4-.3-20.4-.5 0-.3 9.1-.5 20.4-.5 11.3 0 20.4.2 20.4.5zM665.3 187.6c0 .2-9.2.4-20.4.4-11.3 0-20.4-.2-20.4-.4 0-.3 9-.5 20.4-.5 11.2 0 20.4.2 20.4.5z" fill="#000E14"/>
  <path d="M471 123.5c0 .3-2.2.5-5 .5s-5-.2-5-.5 2.2-.5 5-.5 5 .2 5 .5z" fill="#FBFF2E"/>
  <path d="M506 123.7c0 .3-5 .5-11 .5s-11-.2-11-.5 5-.5 11-.5 11 .2 11 .5zM528.3 123.7c0 .3-4.2.5-9.4.5s-9.5-.2-9.5-.5 4.3-.5 9.5-.5 9.4.2 9.4.5zM556.5 123.7c0 .3-4.3.5-9.6.5s-9.6-.2-9.6-.5 4.3-.5 9.6-.5 9.6.2 9.6.5zM581.3 123.7c0 .3-4 .5-8.7.5-4.8 0-8.7-.2-8.7-.5s3.9-.5 8.7-.5c4.8 0 8.7.2 8.7.5zM663.2 123.7c0 .3-17.1.5-38.3.5-21.2 0-38.4-.2-38.4-.5s17.2-.5 38.4-.5 38.3.2 38.3.5z" fill="#000E14"/>
  <path d="M469.7 136.4c0 .3-2 .5-4.4.5-2.4 0-4.3-.2-4.3-.5s2-.5 4.3-.5c2.4 0 4.4.2 4.4.5zM470 149.6c0 .3-2 .5-4.5.5s-4.5-.2-4.5-.5c0-.2 2-.4 4.5-.4s4.5.2 4.5.4zM470 164.6c0 .3-2 .5-4.5.5s-4.5-.2-4.5-.5c0-.2 2-.4 4.5-.4s4.5.2 4.5.4z" fill="#FBFF2E"/>
  <path d="M552.7 164c0 .2-15.2.4-33.8.4a586 586 0 01-33.9-.5c0-.2 15.2-.4 33.9-.4 18.6 0 33.8.2 33.8.4zM546.8 149.6c0 .3-14.5.5-32.3.5a534 534 0 01-32.3-.5c0-.2 14.5-.4 32.3-.4 17.8 0 32.3.2 32.3.4zM702.7 135.7c0 .3-49.2.5-109.9.5s-109.9-.2-109.9-.5 49.2-.5 109.9-.5 109.9.2 109.9.5z" fill="#000E14"/>
  <path d="M811.6 91.2v188l-29.3 24.5h153V91.2H811.5z" fill="#FAFAFA"/>
  <path d="M811.6 91.2h8.5l24.7-.1 90.4-.1h.3v.2l.1 212.5v.3H781.4l.7-.6 29.3-24.4-.1.3.1-136.3.1-38.3v-10V92v-.9 1l.1 2.5V105l.1 38.3.2 136v.2l-.1.1-29.3 24.4-.2-.6h152.9l-.3.4V91.2l.3.3-90.3-.2H811.6z" fill="#000E14"/>
  <path d="M822.8 100.6a2.5 2.5 0 11-5 0 2.5 2.5 0 015 0zM831.9 100.6a2.5 2.5 0 11-5 0 2.5 2.5 0 015 0zM841 100.6a2.5 2.5 0 11-5 0 2.5 2.5 0 015 0z" fill="#000E14"/>
  <path d="M901.3 158.5c0 .2-15.7.4-35 .4-19.4 0-35-.2-35-.4s15.6-.4 35-.4c19.3 0 35 .2 35 .4zM915.9 175.5c0 .2-19.1.4-42.7.4-23.5 0-42.6-.2-42.6-.4s19.1-.4 42.6-.4c23.6 0 42.7.2 42.7.4zM919.3 239c0 .2-20.3.4-45.4.4-25.1 0-45.4-.2-45.4-.4s20.3-.4 45.4-.4c25 0 45.4.2 45.4.4zM837.8 184.2c0 .2-2 .4-4.3.4-2.4 0-4.4-.2-4.4-.4s2-.4 4.4-.4c2.4 0 4.3.2 4.3.4zM867.6 184.4c0 .2-4.2.4-9.4.4s-9.4-.2-9.4-.4c0-.3 4.2-.4 9.4-.4s9.4.1 9.4.4zM886.7 184.4c0 .2-3.6.4-8 .4-4.5 0-8-.2-8-.4 0-.3 3.5-.4 8-.4 4.4 0 8 .1 8 .4zM836.6 195.2c0 .2-1.7.4-3.7.4-2.1 0-3.8-.2-3.8-.4s1.7-.4 3.8-.4c2 0 3.7.2 3.7.4zM836.9 206.6c0 .2-1.7.4-3.9.4-2.1 0-3.9-.2-3.9-.4 0-.3 1.8-.4 4-.4 2 0 3.8.1 3.8.4zM836.9 219.4c0 .2-1.7.4-3.9.4-2.1 0-3.9-.2-3.9-.4s1.8-.4 4-.4c2 0 3.8.2 3.8.4zM907.6 218.8c0 .2-13 .4-29 .4s-28.9-.2-28.9-.4 13-.4 29-.4 29 .2 29 .4zM902.5 206.6c0 .2-12.3.4-27.6.4-15.2 0-27.6-.2-27.6-.4 0-.3 12.4-.4 27.6-.4 15.3 0 27.6.1 27.6.4zM842.5 256c0 .2-1.7.3-3.8.3-2.2 0-4-.1-4-.4 0-.2 1.8-.4 4-.4 2.1 0 3.8.2 3.8.4zM842.5 268.8c0 .2-1.7.4-3.8.4-2.2 0-4-.2-4-.4s1.8-.4 4-.4c2.1 0 3.8.2 3.8.4zM913.3 268.2c0 .2-13 .4-29 .4s-29-.2-29-.4 13-.4 29-.4 29 .2 29 .4zM908.2 256c0 .2-12.4.3-27.6.3-15.3 0-27.6-.1-27.6-.4 0-.2 12.3-.4 27.6-.4 15.2 0 27.6.2 27.6.4zM923 194.6c0 .2-16.7.4-37.5.4-20.7 0-37.6-.2-37.6-.4s16.9-.4 37.6-.4c20.8 0 37.6.2 37.6.4z" fill="#FBFF2E"/>
  <path d="M934 110.4c0 .2-27 .4-60.6.4-33.5 0-60.6-.2-60.6-.4s27.1-.4 60.6-.4 60.7.2 60.7.4z" fill="#000E14"/>
  <path d="M856.8 148.3c0 .2-5.7.4-12.8.4-7 0-12.8-.2-12.8-.4 0-.3 5.7-.4 12.8-.4 7 0 12.8.1 12.8.4zM842.3 125c0 .3-2.7.5-6 .5-3.4 0-6-.2-6-.4 0-.3 2.6-.4 6-.4 3.3 0 6 .1 6 .4z" fill="#FBFF2E"/>
  <path d="M831.8 567c-.8-3-1.7-6.2-3.4-8.9a31.2 31.2 0 00-5.6-6.1c-6.2-5.7-13.8-11.4-22-10-2.6.6-5 1.5-7.3 2.7l-3.7 1.6a18.1 18.1 0 01-11 1c-1.8-.5-3.6-1.4-5.4-2l-2.7-.6c1.8-.8 3.5-1.7 5.2-2.7 9.2-5.7 16.6-15.9 15.6-26.8-.4-3.7-1.7-7.2-2.9-10.7l-3.3-9c-1.4-4-2.9-8-5.5-11.3-2.9-3.6-7-6-11.2-8-9.1-3.9-19-5.3-28.9-6.6l-.7-.1V363.3a6.8 6.8 0 00-6.8-6.8h-13c-.5-3.5-1-7-1.7-10.5-1.6-10-3.3-20-7.8-29-3-5.8-7.8-11.4-14.2-12.6-1.3 0-2.5-.4-3.7-.8-1.9-1-3-3-4.4-4.5-3.7-4-9.8-4-14.8-6-4.4-1.7-8-5-12-7.6-4-2.5-9-4.3-13.5-2.7v1l-3-1.3c-3-1.5-6.1-3-8.6-5.3a25 25 0 01-6.6-12.5 39.7 39.7 0 0010.6-20.3l.7 2.3.6 1.4c.3 1 1 1.8 1.7 2.5a3 3 0 001.5.6l1-.1a4 4 0 002.6-2.4 5.1 5.1 0 00.3-1.7v-.2-.4-.3V245.5v-.5c-.1-.2 0-.1 0-.2l-.2-.6v-.2l-.1-.5-.1-.3v-.1l-.3-1c-.6-3-.7-6-.4-9 .5-4.5 1.3-8.9 2.4-13.2l.2-.8a27.4 27.4 0 00.6-2.7l.3-1.6.2-1.4v-.2c.5-3.2.6-6.4.3-9.6-.4-4.5-1.8-8.7-4.8-12-2.1-2.4-5-4.2-7-6.7-1.8-2.4-2.9-5.3-4.8-7.6-5.4-6.3-19-11.2-27.5-12-9.6-1-25.2 1.4-33 7-2.8 2.2-4.8 5.2-6.8 8a39.5 39.5 0 01-13.7 13.8c-2.2 1.1-4.8 2-6.3 4-.8 1.3-1.4 2.8-1.6 4.4a87.8 87.8 0 00-1.8 16.9v2.1a15.6 15.6 0 001.8 7l.1.2c1 1.5 2 3 2.7 4.7l.5 1.4c.1 1.3 0 2.5-.3 3.8l-.1.5v.4l-.1.4-.2 1c-.2 1 0 2 .2 3a3.9 3.9 0 001.9 2.6l1.5.5 1.6.3a8 8 0 012 .7 8 8 0 012.3 1.8 12 12 0 011.8 2.5 21.1 21.1 0 012 6.3 26 26 0 01.4 2.1l.7-.1c1.2-.5 2-2 2.3-3.3l.2-.7.6-2.7A39.7 39.7 0 00581 271l.7 2c1.1 4 1.6 8-.3 11.4a12 12 0 01-6.3 5c-.4-.6-.9-1-1.4-1.3-2.3-1.1-5 .3-6.9 2-3.4 3-6.2 7.5-10.7 8.5-1.6.4-3.4.3-4.8 1.3-.8.8-1.6 1.8-2.2 2.9a10.2 10.2 0 01-8.7 4.4c-1.6-.1-3.4-.5-4.5.7-.8.8-.9 2.2-1.7 3-1.2 1.1-3 .6-4.6.5-3-.1-6 1.8-7.7 4.4-1.7 2.5-2.5 5.5-3.4 8.5l-.6.6a9 9 0 00-1.9 3c-7 15.8-11 32.7-12 49.8 0 .9-.2 1.7-.6 2.4l-1.3 1.4a4.8 4.8 0 00.8 6.9l1-1.3-.3 1.2c-.3 2.5-.4 5 0 7.5a23540.1 23540.1 0 003.1 45.7 247.6 247.6 0 002.8 20.2c-7 2.3-13.2 6.3-15.8 13-.9 2.2-1.3 4.8-2.4 7-1.2 2.4-3.3 4.3-4.6 6.7-2.3 4.1-2.4 9.1-1.6 13.7 1.7 9 6.5 17 12.9 23.4h-.9c-2 .3-4 1-5.8 2.1a39.7 39.7 0 00-18.4 40.3c.5 3 1.5 6 3.5 8.4 1.7 1.8 3.9 3.1 6.3 3.8 1.4.4 3 .7 4.5.8 10.6.9 20.8-4 31.3-4.4 3.5 0 7 .1 10.5.5 5 .4 10.1.7 15.2.8 8.3.2 13-2 18.3-8.2 1.3-1.5 2.4-3.2 3.2-5l13-1 .1.5c.2 1.7.5 3.7 1.9 4.7.7.6 1.6 1 2.5 1 8.7 2.2 17.4 4.4 26.3 4.4 4.2-.1 8.4-.4 12.5-1l15.6-1.8c4.6.6 9 1.6 13.5 3 4.5 1.5 8.7 3.7 13.1 5.5a131 131 0 0032.2 7.1c1.9.3 4 .5 5.4-.8 1.8-1.7 1.2-4.6.7-7l-.5-3c7.4 2 14.6 4.5 21.6 7.6l1.2.5c.4 1.9 2.1 3.3 3.8 5.4.5.8 1.1 1.6 1.9 2.3.8.5 1.7.9 2.7 1 11.5 2.1 23.3 2.7 35 1.6 2.4-.4 4.8-.5 7.2-.3 1.8.3 3.5.6 5.2 1.2l10 2.8a67 67 0 0022.2 3.8c1.6-.1 3.1-.4 4.6-.7 6-1.4 11.6-4.7 14.4-10.1 4.1-7.3 2.2-16.3 0-24.4z" fill="url(#paint0_linear)"/>
  <path d="M555 565.4c-1.9-4.1-3.6-8.9-1.8-13a11 11 0 015.7-5.3c2.5-1 5-1.7 7.7-2 8.3-1 16.7-1.1 25-.3.7 4.8-.6 9.7-1.7 14.4-1 4.2-1.6 4.9-6 5.1-2.9.2-28.3 2.6-29 1z" fill="#FBBEBE"/>
  <path d="M631.1 537.7c67.6 0 122.3-15.4 122.3-34.3s-54.7-34.2-122.3-34.2c-67.5 0-122.3 15.3-122.3 34.2 0 19 54.8 34.3 122.3 34.3z" fill="#464353"/>
  <path opacity=".1" d="M631.1 537.7c67.6 0 122.3-15.4 122.3-34.3s-54.7-34.2-122.3-34.2c-67.5 0-122.3 15.3-122.3 34.2 0 19 54.8 34.3 122.3 34.3z" fill="#000"/>
  <path d="M653 322.8a38 38 0 01-19.6 17.8c-5 1.9-10.2 2.9-15.6 3-5.8.3-11.7-.1-17.1-2-7.4-2.7-13.5-8.2-18-14.5a87.9 87.9 0 01-10.4-20.8 23.2 23.2 0 01-2.2-11.8c4.4-1 9.3-2.5 11.5-6.4 2-3.4 1.4-7.4.3-11.2l-1-3.2c-.9-2.5-3.8-7.2-1.7-9.3 1.3-1.4 6.8-2 8.6-3 5.9-2.6 11.2-6.5 17.6-7.8a42.3 42.3 0 0118.9 1.8 5 5 0 011.5 2.3c1.6 3.9 2.5 8.1 3.8 12.1 1.3 4.2 3 8.1 6.2 11 2.4 2.4 5.6 3.9 8.7 5.3l7.5 3.4a10 10 0 013.6 2.4 9 9 0 011.7 4.6c1.4 9-.1 18.2-4.3 26.3z" fill="#FBBEBE"/>
  <path opacity=".1" d="M629.5 269.8a39.3 39.3 0 01-47.6 7l-1-3.1c-.9-2.5-3.8-7.2-1.7-9.3 1.3-1.4 6.8-2 8.6-3 5.9-2.6 11.2-6.5 17.6-7.8a42.3 42.3 0 0118.9 1.8 5 5 0 011.5 2.3c1.6 3.9 2.5 8.1 3.8 12.1z" fill="#000"/>
  <path d="M601.2 280.2a39.3 39.3 0 100-78.7 39.3 39.3 0 000 78.7z" fill="#FBBEBE"/>
  <path d="M721 368.5l-3.2-19.5a96.2 96.2 0 00-7.9-28.7c-3-5.8-7.7-11.4-14.1-12.5-1.3-.1-2.6-.4-3.7-.9-2-.9-3-3-4.4-4.4-3.7-3.9-9.8-4-14.8-6-4.4-1.6-8-5-12-7.4-4-2.6-9-4.3-13.5-2.7a67.5 67.5 0 01-4.7 22.4 33.6 33.6 0 01-50.7 12.7 42.2 42.2 0 01-14.8-23.9c-.6-2.2-1.2-4.8-3.3-5.9-2.2-1.1-5 .3-6.8 2-3.5 3-6.2 7.4-10.7 8.4-1.7.4-3.5.3-4.8 1.3-1 .8-1.7 1.8-2.2 2.9a10.3 10.3 0 01-8.8 4.3c-1.6 0-3.4-.4-4.5.7-.8.9-.8 2.2-1.7 3-1.2 1.1-3 .6-4.6.5-3-.1-6 1.8-7.7 4.3-1.7 2.5-2.5 5.5-3.4 8.4 9.4 20.9 18 41.7 27.3 62.5.4.8.6 1.7.7 2.6-.2 1-.6 1.8-1.2 2.6-4.6 7.3-4.5 16.6-4 25.2.6 8.7 1.2 17.8-2.7 25.6-1 2.1-2.4 4-3.4 6.2a58.9 58.9 0 00-1.8 25.5H727c-3.7-10.2-2.3-30.5-1.6-41.3.6-7.5-.8-15-1.4-22.6-1.3-15.3-.4-30-3-45.3z" fill="#069"/>
  <path d="M504 391c-.4 2.4-.5 5-.2 7.4l2.5 35.3.7 10c.6 6.4 1.5 12.8 2.6 19.2a3.4 3.4 0 003.5 3.3c10.8 2.3 22 2.2 33 1.6 16.9-1 33.7-3 50.6-2.7 4.3 0 9.4 0 12-3.4 2.7-3.5 1.1-9-2.3-11.8a19.8 19.8 0 00-12.5-3.4c-5.9 0-11.7.8-17.5.4a86.8 86.8 0 01-15.8-2.9l-14.5-3.6c.5-4.4 2.2-8.5 3.8-12.7 2.9-7.4 5.5-15 5.6-23 0-8-3-16.3-9.5-20.9a31.2 31.2 0 00-18.7-4.3c-4.8.2-13-1-17.3.9-3.5 1.5-5.5 7.2-6 10.6z" fill="#FBBEBE"/>
  <path d="M731 471.7c2.8-1.1 6-.7 9-.3a110 110 0 0129 6.6c4.2 1.9 8.3 4.3 11.2 8a39 39 0 015.4 11l3.3 9c1.3 3.5 2.5 7 2.9 10.6 1 10.7-6.4 20.9-15.6 26.5-9.3 5.6-20.2 7.6-30.8 9.7a984 984 0 00-31.9 6.8c-5 1.3-10 2.3-15 3-11.3 1.2-23.1-.6-33.9 3.1-4.3 1.5-8.5 3.7-13 4.8-2.9.6-5.9 1-8.9 1.3l-20.3 2.3c-4.2.6-8.3 1-12.5 1a112 112 0 01-26.3-4.2c-1-.2-1.8-.5-2.6-1-1.3-1.1-1.6-3-1.8-4.8-.9-7.6-1.7-15.3-2.3-23-.2-2.4-.4-5.1 1-7.2 1.7-2.6 5-3.4 8-3.9 13-2 26-3 39.2-2.7 5-5 13.1-5 19.6-7.7 2.4-1 4.7-2.3 7-3.7a90.7 90.7 0 0138-12c2.7-.2 5.3-.5 7.8-1.2 5-1.6 9.7-5.8 14.9-4.8.6-1.7 1-4.1 2.5-5.3.8-.7 1.7-1 2.3-1.7 1.5-1.5 1.6-3.8 1.4-5.8-.2-2-.7-4-.2-6 .2-.8.5-1.5 1-2.2 2.5-4.4 6.4-6.7 11.6-6.2z" fill="#464353"/>
  <path opacity=".1" d="M731 471.7c2.8-1.1 6-.7 9-.3a110 110 0 0129 6.6c4.2 1.9 8.3 4.3 11.2 8a39 39 0 015.4 11l3.3 9c1.3 3.5 2.5 7 2.9 10.6 1 10.7-6.4 20.9-15.6 26.5-9.3 5.6-20.2 7.6-30.8 9.7a984 984 0 00-31.9 6.8c-5 1.3-10 2.3-15 3-11.3 1.2-23.1-.6-33.9 3.1-4.3 1.5-8.5 3.7-13 4.8-2.9.6-5.9 1-8.9 1.3l-20.3 2.3c-4.2.6-8.3 1-12.5 1a112 112 0 01-26.3-4.2c-1-.2-1.8-.5-2.6-1-1.3-1.1-1.6-3-1.8-4.8-.9-7.6-1.7-15.3-2.3-23-.2-2.4-.4-5.1 1-7.2 1.7-2.6 5-3.4 8-3.9 13-2 26-3 39.2-2.7 5-5 13.1-5 19.6-7.7 2.4-1 4.7-2.3 7-3.7a90.7 90.7 0 0138-12c2.7-.2 5.3-.5 7.8-1.2 5-1.6 9.7-5.8 14.9-4.8.6-1.7 1-4.1 2.5-5.3.8-.7 1.7-1 2.3-1.7 1.5-1.5 1.6-3.8 1.4-5.8-.2-2-.7-4-.2-6 .2-.8.5-1.5 1-2.2 2.5-4.4 6.4-6.7 11.6-6.2z" fill="#000"/>
  <path d="M562.8 570.6c-5.3 6.2-10 8.4-18.2 8.2a268 268 0 01-15.3-.8c-3.5-.4-7-.6-10.5-.5-10.5.4-20.7 5.2-31.3 4.4-1.5-.1-3-.4-4.6-.9-2.3-.6-4.5-2-6.2-3.7a17 17 0 01-3.5-8.4 39.1 39.1 0 0118.4-39.8c1.7-1.2 3.7-1.9 5.8-2.1 2 0 4.1.4 6 1.3a44.8 44.8 0 0114.7 9.8c.7.8 1.4 1.4 2.3 1.8.8.4 1.7.5 2.6.5l11.3.7c1.9.1 3.8.4 5.6.8 2 .7 4 1.6 6 2.6 6 2.7 12.7 3.4 19.2 4.5.7 0 1.3.2 1.7.6.3.4.5.7.6 1.2a21.8 21.8 0 01-4.6 19.8z" fill="#000E14"/>
  <path opacity=".1" d="M503.5 528.4a67.5 67.5 0 00-20.6 52.6c-2.3-.6-4.5-2-6.2-3.7a17 17 0 01-3.5-8.3 39.1 39.1 0 0118.4-40c1.7-1 3.7-1.8 5.8-2 2 0 4.1.4 6 1.3z" fill="#000"/>
  <path d="M721.2 549.6c6.3-.1 13.3-.4 18 3.8 4.3 4 5 10.6 5.2 16.5l.3 7c.2 2 .2 4.2-.6 6.2-1.5 3.4-5.6 5-9.4 4.8-3.8-.2-7.3-1.8-10.7-3.3-9.4-4-19.1-7-29-9.2.2-4.7.8-9.5 1.5-14.2.6-3.3.6-8.8 2.8-11.5 2.4-2.9 5.4-1.3 8.5-.8 4.4.7 9 1 13.4.7z" fill="#FBBEBE"/>
  <path d="M555 480.3c0 .8-1.3 0-1.4-1-1-6.9-6.5-12.6-12.9-15.3a42 42 0 00-20.6-2.3c-10.5 1-22.2 5-26 14.8-1 2.3-1.4 4.8-2.5 7-1.2 2.4-3.2 4.3-4.6 6.7-2.3 4-2.4 9-1.5 13.6a49 49 0 0020.7 29.9c10.1 7.2 22 11.6 33.8 15.5a586 586 0 0095.8 22.9c5.3.8 10.6 1.5 15.6 3.2 4.6 1.5 8.8 3.8 13.2 5.5a132 132 0 0032.2 7c2 .3 4 .5 5.4-.8 1.8-1.6 1.2-4.5.7-6.9a37 37 0 014.4-26.3c1.8-3 4.2-6.2 3.8-9.8-.4-4.1-4.5-7-8.6-7.7-4.1-.7-8.3.3-12.5.8-1.4.2-3 .3-4.2-.4l-1.7-1.5a18.8 18.8 0 00-21.8-3c-1.6.8-3.9-1-5.5-1.8l-18-8.2a424.4 424.4 0 00-63.3-24.6c-1.7-.4-3.4-1-4.8-2-1.1-.9-1.9-2-2.9-3-2.2-2-5.2-2.9-7.8-4.4-2.6-1.4-5.6-5-5-8z" fill="#464353"/>
  <path d="M832.4 592a21.4 21.4 0 01-14.5 10c-1.5.4-3 .6-4.6.7-7.5.5-15-1.6-22.3-3.7l-9.9-2.8c-1.7-.5-3.5-.9-5.2-1.1-2.4-.2-4.9 0-7.2.2a128 128 0 01-35.1-1.5c-1-.1-2-.5-2.7-1l-2-2.3c-2.6-3.3-5.5-5.2-2.3-9.4 1.8-2.5 5.2-3.8 6.7-6.6 1.4-2.9.5-6.9-.4-9.8-1.1-4.1-5-5.9-6.3-9.6-1-2.8.7-6 3.3-7.6 2.6-1.5 5.7-1.6 8.7-1.3 3 .4 5.9 1.3 8.9 1.5 8.7.7 17.7-3.8 26.1-1.3 1.9.6 3.7 1.5 5.5 2 3.7.8 7.5.5 11-1l3.6-1.5c2.4-1.2 4.8-2.1 7.4-2.7 8.2-1.4 15.8 4.3 22 9.9 2.1 1.7 4 3.8 5.6 6 1.7 2.7 2.6 5.8 3.4 8.9 2.3 7.9 4.2 16.8.3 24z" fill="#000E14"/>
  <path opacity=".1" d="M832.4 592a21.4 21.4 0 01-14.5 10 28 28 0 003-14.6c-.5-8.1-4-15.8-8.6-22.6a80 80 0 00-9.5-11.6c-2.7-2.7-6-4.9-9-7.4 2.3-1.2 4.8-2 7.3-2.6 8.2-1.4 15.8 4.3 22 9.8 2.2 1.8 4 3.8 5.6 6 1.8 2.8 2.7 5.9 3.5 9 2.2 7.9 4 16.8.2 24z" fill="#000"/>
  <path d="M518.2 328.2c-.8.8-1.4 1.9-1.9 3-6.9 15.6-11 32.3-12 49.3a5 5 0 01-.6 2.4l-1.2 1.3a4.7 4.7 0 00.8 6.9c1.4-2.7 4.8-3.5 7.8-3.8 14.3-1.1 28.4 5.6 42.8 5-1-3.4-2.5-6.8-3.3-10.4-3.7-15.8 5.5-33-.1-48.2-1.2-3-3-6-6-7.4-1.2-.5-2.5-.8-3.8-1-3.6-.6-10.9-3.4-14.4-2.3-1.3.4-1.8 1.6-2.9 2.4-1.6 1-3.8 1.4-5.2 2.8z" fill="#069"/>
  <path d="M732.5 359.3H555.4c-3.8 0-6.8 3-6.8 6.8V474c0 3.7 3 6.8 6.8 6.8h177.1c3.8 0 6.8-3 6.8-6.8V366c0-3.7-3-6.8-6.8-6.8z" fill="#F0F9FE"/>
  <path d="M643.5 425.2a5.1 5.1 0 100-10.3 5.1 5.1 0 000 10.3zM574 177c-2.9 2-4.9 5-6.9 7.9a39.2 39.2 0 01-13.7 13.5c-2.2 1.2-4.8 2-6.3 4-.8 1.3-1.4 2.8-1.6 4.3a87 87 0 00-1.8 16.8c0 2.8.1 5.7 1.4 8.3 1.1 2.3 3.2 4.4 3.7 7 .3 2-.4 4-.7 6-.3 2.1.2 4.6 2 5.5 1.1.4 2.2.7 3.3.8 5.6 1.2 7.5 8 8.4 13.4 2 0 2.8-2.3 3.2-4.1l6-26.4c.6-2.8 1.7-6.1 4.5-7.1 2-.7 4 0 6 .1 7.8.6 14.4-5.4 22.1-7 2.4-.6 5-.7 7.4-.6 6 .3 13.1 2.8 14.4 8.4.2 1 .3 2 1.2 2.5.8.5 1.7 0 2.6 0 3.9-.4 6.1 4 7.2 7.5l4 12.8c.7 2 1.7 4.2 3.8 4.5 2 .2 3.6-1.6 3.9-3.5.2-1.8-.4-3.7-.8-5.5-1.9-8.4 1-17 2.8-25.5 1.7-8.4 2-18.1-3.9-24.6-2.1-2.4-5-4.1-7-6.6-1.8-2.3-2.9-5.2-4.8-7.5-5.3-6.3-19-11.2-27.5-12a56 56 0 00-33 7z" fill="#000E14"/>
  <g opacity=".1" fill="#000">
    <path opacity=".1" d="M644.2 249c-2.1-.2-3.1-2.5-3.7-4.4l-4-12.8c-1.1-3.6-3.4-7.9-7.2-7.5-1 .1-1.9.5-2.7 0-.8-.4-1-1.5-1.2-2.4-1.3-5.7-8.3-8.2-14.3-8.5-2.5-.1-5 0-7.5.5-7.6 1.7-14.2 7.7-22 7.1-2-.2-4.2-.8-6-.1-3 1-4 4.3-4.6 7.2l-6 26.3c-.4 1.8-1.2 4-3.2 4.1-.8-5.5-2.7-12.1-8.4-13.4-1.1-.1-2.2-.4-3.2-.8-.7-.4-1.3-1-1.6-1.8l-.5 2.4c-.2 2 .2 4.5 2.1 5.4 1 .4 2.1.7 3.2.8 5.7 1.2 7.6 8 8.4 13.4 2 0 2.9-2.3 3.3-4.1L571 234c.6-2.8 1.7-6.1 4.5-7.1 2-.7 4 0 6 .1 7.9.6 14.5-5.4 22.1-7 2.5-.6 5-.7 7.5-.6 6 .3 13 2.8 14.3 8.4.2 1 .4 2 1.2 2.5.9.5 1.8 0 2.7 0 3.8-.4 6 4 7.2 7.5l4 12.8c.6 2 1.6 4.2 3.7 4.5 2 .2 3.6-1.6 3.9-3.5.1-1.5 0-3-.5-4.5a3.5 3.5 0 01-3.4 2zM548.8 232.8c-.4-2.6-2.6-4.6-3.7-7a14 14 0 01-1.3-5.2v3c0 2.7 0 5.6 1.3 8.2 1 1.9 2.5 3.6 3.3 5.6.4-1.5.5-3 .4-4.6zM650 214.6c-1.5 7.5-3.9 15-3.1 22.5.4-5.5 2-11 3.2-16.5 1-4.2 1.3-8.5 1-12.7-.2 2.2-.5 4.5-1 6.7z"/>
  </g>
  <path opacity=".1" d="M521.9 265.8s-64-26.9-72.4 21.6c0 0-4.4 7.6 1.7 13.9 0 0 1.3-3.4 7.5 0 2.2 1.3 4.6 2.2 7 2.9 3.3 1 6.8.7 10-.5 0 0 21-1.2 38.7-28.7 0 0 7.5-4.7 8-6.4l-12.8.8s1 9.3-4.2 14.9c0 0 4.6-14.4 2.4-14.8-.5-.1-6.7.7-6.7.7s1.6 16.1-6.9 24.5c0 0 7.9-16.4 4.5-24.2l-9.4 1.8s2.6 17-6.7 26.8c0 0 7.7-17.4 4.7-26.3l-9 3s2.2 16.7-5.5 24.9c0 0 6.7-21.1 3.5-24 0 0-8 3.3-9.7 5.1 0 0 1.2 12-3.7 16.3 0 0 3-14.5 1.5-15.1 0 0-9.3 7-12.2 13.1 0 0 3.6-9.3 11-14.5 0 0-6.2-1-11 1.5 0 0 3.2-6.1 13.3-3.2 0 0 7.6-5.2 9-5.1 0 0-9.5-4.3-16.5-3.8 0 0 7.5-4.3 19 2.9l8.9-3.2s-12.5-6.4-18.7-6.4c0 0 8.3-3.2 21 5.7l9.1-1.8s-10.2-6.3-17.2-7.8c0 0 8.3-1.3 19.9 7.3l6.2-.5s-7.6-4.5-9.8-5.5c-2.3-1.1-2.2-1.8-2.2-1.8 5.4.9 10.5 3.3 14.6 7 0 0 13-.3 13-1zM519.5 217.6s-22.6-52.4-55.3-28.4c0 0-6.9 2-6.8 9.2 0 0 2.7-1.3 4.4 4.3.6 2 1.4 3.9 2.5 5.7 1.5 2.4 3.6 4.3 6.2 5.3 0 0 13.2 11.3 39.4 5 0 0 7.2 1.6 8.4.8l-8-6.8s-4.7 6.1-11 6.4c0 0 11-5.9 9.8-7.4-.2-.3-4.4-3.4-4.4-3.4s-8.2 10.5-18 10.7c0 0 14-5.3 16.5-11.9l-6.6-4.2s-8.3 11.5-19.4 12.1c0 0 14.4-6 17.7-13l-7-3.3s-8.2 11.1-17.4 11.6c0 0 16-8.7 15.7-12.2 0 0-6.6-2.7-8.7-2.5 0 0-6 7.8-11.5 7.6 0 0 10.1-7 9.6-8.1 0 0-9.6-1.2-14.8.8 0 0 7.4-3.5 14.9-2.3 0 0-3.2-4.3-7.5-5.4 0 0 5.4-1.8 9.8 5.7 0 0 7.4 1.2 8.3 2 0 0-3.3-8-7.7-11.6 0 0 6.8 1.7 9.6 12.5l7.1 3.1s-3.7-10.8-7.4-14.3c0 0 6.7 2.8 9.2 15.3l6.5 4s-2.6-9.5-5.8-14.3c0 0 5.7 4 7.6 15.6l4 3.3-2.7-9c-.7-1.9-.3-2.2-.3-2.2 2.7 3.6 4.3 8 4.7 12.5 0 0 8 7.2 8.4 6.8z" fill="#069"/>
  <defs>
    <linearGradient id="paint0_linear" x1="653.4" y1="602.2" x2="653.4" y2="165" gradientUnits="userSpaceOnUse">
      <stop stop-color="gray" stop-opacity=".3"/>
      <stop offset=".5" stop-color="gray" stop-opacity=".1"/>
      <stop offset="1" stop-color="gray" stop-opacity=".1"/>
    </linearGradient>
  </defs>
</svg>
