<svg viewBox="0 0 64 64" xmlns="http://www.w3.org/2000/svg">
  <path d="M32 21a7 7 0 100-14 7 7 0 000 14zm0-12a5 5 0 110 10 5 5 0 010-10z"/>
  <path d="M20.1 20.5l5.4 5.4 2.1-1.3.6 2.4h7.6l.6-2.4 2.1 1.3 5.4-5.4-1.3-2.1 2.4-.6v-7.6l-2.4-.6 1.3-2.1L38.5 2l-2.1 1.3-.6-2.4h-7.6l-.6 2.4-2.1-1.3L20 7.5l1.3 2.1-2.4.6v7.6l2.4.6zm.9-4.3v-4.4l2-.5.5-.2.4-1.2-1.2-2.1 3-3.1L28 5.9l1.2-.5.6-2.4h4.4l.6 2.4 1.3.5 2.1-1.2 3.1 3-1.2 2.2.4 1.3 2.5.6v4.4l-2 .5-.5.2-.4 1.2 1.2 2.1-3 3.1-2.3-1.2-1.2.5-.6 2.4h-4.4l-.6-2.4L28 22l-2.2 1.2-3.1-3 1.2-2.3-.4-1.2zM45 39H19a3 3 0 00-3 3v18a3 3 0 003 3h26a3 3 0 003-3V42a3 3 0 00-3-3zm1 3v3H36v-4h9c.6 0 1 .4 1 1zm-16-1h4v8h-4zm-11 0h9v4H18v-3c0-.6.4-1 1-1zm26 20H19a1 1 0 01-1-1V47h10v4h8v-4h10v13c0 .6-.4 1-1 1z"/>
  <path d="M34 57h2v2h-2zM42 57h2v2h-2zM38 57h2v2h-2zM51.2 31.8L50 45.1l13.3-1.3-4.5-4.5C60.2 35.7 61 31.9 61 28c0-7.9-3-15.4-7.4-18.8l-.7-.6-4.4 4.5 1 .7c2.7 2 5.5 7.5 5.5 14.2 0 2.2-.3 4.5-1 6.6zm4.2 5C56.4 34 57 31 57 28c0-6-2.2-12-5.5-15l1.6-1.7c3.5 3.3 5.9 10 5.9 16.7 0 3.9-.8 7.6-2.4 11.1l-.3.6 2.5 2.5-6.7.7.7-6.7 2 2zM9 28c0-2.2.3-4.5 1-6.6l2.8 2.8L14 10.9.8 12.2l4.5 4.5A28.7 28.7 0 003 28c0 7.9 3 15.4 7.4 18.8l.7.6 4.4-4.5-1-.7C11.9 40.2 9 34.7 9 28zm2 16.7c-3.6-3.3-6-10-6-16.7 0-3.9.8-7.6 2.4-11.1l.3-.6-2.5-2.5 6.7-.7-.7 6.7-2-2-.6 1.4C7.6 22 7 25 7 28c0 6 2.2 12 5.5 15z"/>
</svg>
