<svg xmlns="http://www.w3.org/2000/svg" viewBox="0 0 300 49.4">
  <path d="M19.2.8h9.4V34a15.2 15.2 0 01-4 11.2 13.8 13.8 0 01-10.2 4 14.8 14.8 0 01-10.6-3.6c-2.6-2.4-3.9-6-3.8-10.8l.1-.2h9.4c0 2.5.4 4.4 1.3 5.5a4.3 4.3 0 003.5 1.8 4 4 0 003.5-2.1A10.2 10.2 0 0019 34V.8zm36 37.7h-13l-2.5 10.1h-9.8L43.8.8h10l13.8 47.8h-9.7l-2.7-10.1zm-11-7.6h9L49 14h-.3zM81.5.8l8.8 35.1h.2l9-35.1h12.4v47.8h-9.5v-14l.8-18.5h-.3l-9.4 32.5h-6.3L78 16.3h-.3l.9 18.4v14H69V.6h12.5zm68 36.4a8.7 8.7 0 00-3.4-7.3 34 34 0 00-11.7-4.9 38.4 38.4 0 01-12.4-5 9.5 9.5 0 01-3.8-8.2 9.9 9.9 0 014.5-8.5A20 20 0 01134.5.1c4.8 0 8.6 1.3 11.7 3.9a12.5 12.5 0 014.4 10v.3H149a11.3 11.3 0 00-4-8.9 15.5 15.5 0 00-10.5-3.5c-4.5 0-8 1-10.6 2.9-2.6 2-3.9 4.3-3.9 7a8.4 8.4 0 003.2 6.8 30.7 30.7 0 0011.7 4.8 37 37 0 0112.3 5 10 10 0 014.2 8.7 10.3 10.3 0 01-4.8 9 20.5 20.5 0 01-11.9 3.2A23.3 23.3 0 01122 46c-3.6-2.3-5.3-5.8-5.2-10.7v-.2h1.6c0 4.4 1.7 7.5 5 9.5a21.2 21.2 0 0011.3 3 18.5 18.5 0 0010.6-3 8.8 8.8 0 004.2-7.4zm37-29.8a1 1 0 01-.2.7.8.8 0 01-.6.3h-14.3v39.3a.8.8 0 01-.3.6 1 1 0 01-.7.3 1.1 1.1 0 01-.6-.2.8.8 0 01-.3-.7V8.3H155a.8.8 0 01-.6-.2 1 1 0 01-.3-.7 1.2 1.2 0 01.3-.7.8.8 0 01.6-.3h30.6a.8.8 0 01.6.3 1.1 1.1 0 01.3.7zm28 27h-24L185 48.5h-2L201.3.8h2.3L222 48.6h-2zm-23.4-1.9h22.7L203.5 5.6l-1-2.7h-.1l-1 2.7-10.3 27zm66.8 1.5v.2c.2 4.9-1.4 8.6-4.5 11.2a18.8 18.8 0 01-12.5 3.9 16 16 0 01-12.8-5.8 23 23 0 01-4.8-15.2V21A23 23 0 01228 5.8a16 16 0 0113-5.8c5 0 9.2 1.3 12.4 3.9 3.1 2.6 4.7 6.3 4.6 11.2l-.1.2h-1.5a12.4 12.4 0 00-4.2-10A16.8 16.8 0 00241 1.8a14.3 14.3 0 00-11.5 5.3 21.1 21.1 0 00-4.4 14v7.1c0 5.8 1.5 10.5 4.4 14a14.4 14.4 0 0011.5 5.3c4.8 0 8.5-1.2 11.3-3.4 2.8-2.2 4.1-5.6 4.1-10.2h1.6zm17-8.8h-7.6v23.4h-1.8V.8h1.8v22.7h8l21-22.7h2.1v.1L277 24.6 300 48.4l-.1.2h-2.1z" fill="var(--theme)"/>
</svg>
