<svg xmlns="http://www.w3.org/2000/svg" width="300" height="49.352" viewBox="0 0 300 49.352"><path d="M19.163.768h9.476V34.034a15.212,15.212,0,0,1-3.99,11.172A13.765,13.765,0,0,1,14.375,49.3,14.763,14.763,0,0,1,3.8,45.655C1.208,43.161-.089,39.52.011,34.782l.1-.2H9.487c0,2.494.449,4.389,1.347,5.486a4.289,4.289,0,0,0,3.491,1.8,4.047,4.047,0,0,0,3.441-2.095,10.174,10.174,0,0,0,1.347-5.736V.768ZM55.222,38.473H42.255L39.661,48.647H29.936L43.8.768h9.975L67.591,48.647H57.915L55.222,38.473ZM44.25,30.942h8.977L48.888,13.985h-.249ZM81.506.768l8.778,35.161h.2L99.461.768h12.469V48.647h-9.476V34.683l.8-18.553-.3-.05L93.526,48.647H87.192L77.965,16.329l-.249.05.848,18.354V48.647H69.037V.768H81.506Zm68.029,36.408a8.728,8.728,0,0,0-3.391-7.232,33.914,33.914,0,0,0-11.77-4.888,38.4,38.4,0,0,1-12.319-4.987,9.476,9.476,0,0,1-3.89-8.229,9.868,9.868,0,0,1,4.588-8.529A20.05,20.05,0,0,1,134.473.12c4.788,0,8.678,1.3,11.72,3.89a12.477,12.477,0,0,1,4.439,10.075l-.05.2h-1.6A11.272,11.272,0,0,0,145,5.406a15.461,15.461,0,0,0-10.523-3.491c-4.489,0-7.98,1-10.573,2.893-2.593,1.945-3.89,4.289-3.89,6.982a8.431,8.431,0,0,0,3.192,6.783,30.673,30.673,0,0,0,11.671,4.788A36.907,36.907,0,0,1,147.191,28.5a10.032,10.032,0,0,1,4.189,8.628,10.324,10.324,0,0,1-4.788,8.977,20.548,20.548,0,0,1-11.87,3.242A23.291,23.291,0,0,1,122,46c-3.591-2.294-5.287-5.835-5.187-10.673l.05-.2h1.5c0,4.339,1.7,7.481,4.987,9.476a21.233,21.233,0,0,0,11.371,2.943,18.532,18.532,0,0,0,10.623-2.893,8.778,8.778,0,0,0,4.189-7.481ZM186.591,7.451a1,1,0,0,1-.249.648.848.848,0,0,1-.648.3H171.43V47.75a.8.8,0,0,1-.3.6,1,1,0,0,1-.7.3,1.1,1.1,0,0,1-.648-.249.8.8,0,0,1-.3-.648V8.349H155.121a.848.848,0,0,1-.6-.249.948.948,0,0,1-.3-.648,1.192,1.192,0,0,1,.249-.7.8.8,0,0,1,.648-.349h30.573a.778.778,0,0,1,.648.349A1.147,1.147,0,0,1,186.591,7.451Zm27.93,26.882H190.482L185,48.647H183L201.354.768H203.6L222,48.647h-2Zm-23.441-1.8h22.693L203.549,5.606l-1-2.693h-.15l-.948,2.693L191.13,32.538Zm66.832,1.446v.2c.15,4.888-1.4,8.628-4.489,11.222a18.8,18.8,0,0,1-12.469,3.89,15.96,15.96,0,0,1-12.818-5.785A22.943,22.943,0,0,1,223.3,28.3V21.067a22.943,22.943,0,0,1,4.838-15.212A15.96,15.96,0,0,1,241.1.02c5.087,0,9.227,1.3,12.369,3.89,3.142,2.643,4.688,6.334,4.588,11.222l-.1.2h-1.5a12.419,12.419,0,0,0-4.189-9.975,16.758,16.758,0,0,0-11.222-3.541A14.314,14.314,0,0,0,229.483,7.1a21.1,21.1,0,0,0-4.389,13.915v7.232c0,5.785,1.5,10.474,4.389,13.965A14.42,14.42,0,0,0,241.054,47.5c4.738,0,8.479-1.147,11.222-3.391,2.793-2.244,4.14-5.636,4.14-10.174h1.546Zm16.957-8.728h-7.581V48.647h-1.746V.768h1.8V23.511h8.03L296.215.768h2.194l.05.15-21.546,23.69,23.092,23.84-.1.2h-2.095Z" transform="translate(-0.006 -0.008)" fill="#eee"/></svg>