<svg width="30" height="30" viewBox="0 0 300 300" fill="none" xmlns="http://www.w3.org/2000/svg">
  <path fill-rule="evenodd" clip-rule="evenodd" d="M69.4 50h81.4c12.4 0 44.2.1 72.5.6 28.4.4 35.3 19.8 35.2 29.5 0 1.7-.5 8.5-1.3 16.7-1.1 12.4-2.6 27.9-2.2 34.2.5 10.6 14.6 13 17.5 13.3 2.4.2 2.7 1.4 2.5 1.9v9c0 1-1.6 1.7-2.5 1.9l-11.3 2.7c-9.5 3.8-5.7 29.3-3.5 41.2a77 77 0 010 23.8c0 17.4-21.5 24-32.2 25.2h-184c-1.3 0-1.8-1-1.9-1.6.1-2.9.3-9 0-10.6-.2-1.5 1.2-1.8 2-1.8 54.3 0 167.2.2 183.9 0 19.4-.3 15.3-29 14.7-33.6l-.1-.6-.2-1.7c-.7-4.2-2.3-15.2-2.3-27.3 0-4.3 1.4-8.6 4-12.3a28 28 0 0111.5-9h.1l.1-.1c1-.4.4-1.4 0-2-19.2-3.1-16.5-39.4-12.7-57.1C244.1 68.9 231 64 224 64.7c-45.8-.2-140.1-.5-150.7 0-13.3.5-17.6 12.2-14.6 33 2.5 17.9 2.3 23.4 2 30.7l-.1 4c-.3 9.8-13 15.8-15 16.6-1.4.6-.5 1.7 0 2.1 13.9 3.3 16.1 19.8 15.2 35.8 0 2.2 1.5 2.5 2.2 2.4h6.2c2.6 0 4.4-1.6 5-2.4l25-30.4c-41.6-24.4-14.8-59 8.2-60.7h69.5c44.6 7.4 46 30.4 45.5 65.4-.5 28-27.3 39.4-40.6 41.7-14 0-42.3 0-44.7.3-2.4.2-2.8-1.4-2.7-2.2.1-12 .2-36.2 0-38-.2-1.7-1.5-2-2.1-1.8-2.3 0-8 .2-12.5 0-4.5-.3-6.5 1.2-7 1.8A1422.4 1422.4 0 0080 202c-.3 1-1.4 1.2-2 1.2H44.6c-1.3 0-1.4-.8-1.3-1.1.2-6.5.7-22 .5-31.5-.3-11.9-14.6-14-16.8-14-1.7 0-2-1.2-1.9-1.7v-10.3c0-1 .8-1.3 1.1-1.3 21.2 2.5 18.4-22.8 15.9-45.7-.8-7.1-1.5-14-1.5-19.7.2-18.3 19.3-26.2 29-27.9zm65.1 59.9c0-1.5-1.8-1.9-2.7-1.9h-23.5c-3.5 0-14.4 1.9-15.1 23.3-.7 17.8 25.8 19.3 39.2 17.9 1.7 0 2.1-1.3 2.1-2V110zm14.6 0c.1-.7.6-1.9 2-1.9h25.4c7.9 1 15.1 4 20.6 8.6a26.7 26.7 0 019.7 16.9c4 23-1.3 55.8-26.8 55.8h-29c-.5 0-1.8-.3-1.8-1.6v-77.8z" fill="#006699"/>
</svg>
