<svg xmlns="http://www.w3.org/2000/svg" width="512" height="512" viewBox="0 0 512 512">
  <path d="M476 64h-28V36a28 28 0 00-28-28H92a28 28 0 00-28 28v28H36A28 28 0 008 92v304a28 28 0 0028 28h153.4L178 464h-34a8 8 0 00-8 8v24a8 8 0 008 8h224a8 8 0 008-8v-24a8 8 0 00-8-8h-34l-11.4-40H476a28 28 0 0028-28V92a28 28 0 00-28-28zM80 36a12 12 0 0112-12h328a12 12 0 0112 12v20H80zm0 36h352v244a12 12 0 01-12 12H272v-64a32 32 0 00-31.1-32l-32.9-6.6v-4.8a40 40 0 0024-36.6v-32a40 40 0 00-40-40h-16a40 40 0 00-40 40v32a40 40 0 0024 36.6v4.8l-32.9 6.6A32 32 0 0096 264v64h-4a12 12 0 01-12-12zm152 208a8 8 0 00-8 8v40h-80v-40a8 8 0 00-16 0v40h-16v-64a16 16 0 0116-16 7.5 7.5 0 001.6-.2l32.3-6.4a24 24 0 0044.2 0l32.3 6.4a7.5 7.5 0 001.6.2 16 16 0 0116 16v64h-16v-40a8 8 0 00-8-8zm-16-115v19a24 24 0 01-24 24h-16a24 24 0 01-24-24v-8.2c13.9-.5 42.9-2.6 64-10.9zm-64-5.2V152a24 24 0 0124-24h16a24 24 0 0123.6 19.6c-16.6 8.5-46.4 11.5-63.6 12.2zm40 64.2v8a8 8 0 01-16 0v-8zm168 256v8H152v-8zm-165.4-16l11.4-40h100l11.4 40zM488 396a12 12 0 01-12 12H36a12 12 0 01-12-12v-20h464zm0-36H24V92a12 12 0 0112-12h28v236a28 28 0 0028 28h328a28 28 0 0028-28V80h28a12 12 0 0112 12z"/>
  <path d="M96 48h8a8 8 0 000-16h-8a8 8 0 000 16zM128 48h8a8 8 0 000-16h-8a8 8 0 000 16zM160 48h8a8 8 0 000-16h-8a8 8 0 000 16zM416 80H288a8 8 0 00-8 8v136a8 8 0 008 8h128a8 8 0 008-8V88a8 8 0 00-8-8zm-32 136h-64v-10a22 22 0 0122-22h20a22 22 0 0122 22zm-48-68v-16a12 12 0 0112-12h8a12 12 0 0112 12v16a12 12 0 01-12 12h-8a12 12 0 01-12-12zm72 68h-8v-10a38 38 0 00-26.4-36.2A28 28 0 00384 148v-16a28 28 0 00-28-28h-8a28 28 0 00-28 28v16a28 28 0 0010.4 21.8A38 38 0 00304 206v10h-8V96h112z"/>
</svg>
