<svg xmlns="http://www.w3.org/2000/svg" xmlns:xlink="http://www.w3.org/1999/xlink" width="150.201" height="120" viewBox="0 0 150.201 120"><defs><clipPath id="a"><path d="M0,0H30.035V26.13H0Z" fill="#fff"/></clipPath><linearGradient id="b" x1="0.432" y1="0.552" x2="1.677" y2="-0.047" gradientUnits="objectBoundingBox"><stop offset="0.138" stop-color="#41873f"/><stop offset="0.403" stop-color="#54a044"/><stop offset="0.714" stop-color="#66b848"/><stop offset="0.908" stop-color="#6cc04a"/></linearGradient><linearGradient id="c" x1="-0.045" y1="0.499" x2="1.016" y2="0.499" gradientUnits="objectBoundingBox"><stop offset="0.092" stop-color="#6cc04a"/><stop offset="0.286" stop-color="#66b848"/><stop offset="0.597" stop-color="#54a044"/><stop offset="0.862" stop-color="#41873f"/></linearGradient><linearGradient id="d" x1="-1.039" y1="0.503" x2="1.007" y2="0.503" xlink:href="#c"/></defs><g transform="translate(0.001 0)"><path d="M13.24,13.924C11.708,6.956,7.984,4.673,7.534,3.8a9.341,9.341,0,0,1-.9-1.8v.12h-.06v.24l-.03.06v.15h-.03v.09h-.03v.09h-.03v.06h-.03v.06h-.03v.06h-.03v.06h-.03v.03h0v.06h-.06v.03h-.03v.03h-.03v.03h-.03V3.2h-.03v.06h-.03v.03h-.03v.03h-.03v.03h-.03v.03h0v.03h-.06v.06h-.03l-.06.03v.03l-.09.06-.09.06-.24.21A17.21,17.21,0,0,0,.025,17.378a13.636,13.636,0,0,0,2.943,7.749,16.754,16.754,0,0,0,3.154,3.154,10.117,10.117,0,0,1,.511,3.484l.841.27a16.381,16.381,0,0,1,.06-3.154,1.982,1.982,0,0,1,.451-.841,9.551,9.551,0,0,0,.991-.811l.06-.06A14.3,14.3,0,0,0,13.3,13.894h-.06Z" transform="translate(0 58.08)" fill="#4db33d"/><g transform="translate(120.165 60.08)" clip-path="url(#a)"><path d="M28.513,10.48q-.462-.161-.931-.3.081-.329.15-.661c.721-3.454.24-6.247-1.382-7.178-1.562-.9-4.115.03-6.668,2.253q-.384.321-.751.661-.251-.23-.511-.451c-2.7-2.343-5.406-3.334-7-2.4-1.562.871-2.012,3.484-1.382,6.788l.24.961q-.561.164-1.111.36C6.016,11.591,4,13.273,4,15.015c0,1.832,2.163,3.664,5.436,4.776q.4.13.811.24-.135.522-.24,1.051c-.6,3.244-.12,5.8,1.442,6.668,1.592.9,4.265,0,6.908-2.253q.308-.293.6-.6.395.387.811.751c2.553,2.132,5.046,3,6.608,2.1,1.592-.9,2.1-3.634,1.442-7q-.081-.393-.18-.781.272-.086.541-.18c3.424-1.111,5.647-2.913,5.647-4.746,0-1.8-2.1-3.484-5.286-4.565Zm-.721,8.109q-.254.094-.511.18a29.071,29.071,0,0,0-1.5-3.724,29.1,29.1,0,0,0,1.442-3.664q.454.139.9.3c2.763.9,4.445,2.283,4.445,3.364,0,1.111-1.8,2.613-4.806,3.574Zm-1.2,2.4a10.742,10.742,0,0,1,.12,3.875,2.514,2.514,0,0,1-.991,1.8c-.931.541-2.943-.15-5.106-1.982q-.385-.32-.751-.661A29.492,29.492,0,0,0,22.355,20.9a31.223,31.223,0,0,0,4.055-.6q.083.344.15.691ZM14.156,26.609a2.823,2.823,0,0,1-2.1.06c-.9-.541-1.322-2.583-.781-5.346q.091-.5.21-.991a26.386,26.386,0,0,0,4.025.6,39.083,39.083,0,0,0,2.583,3.094,10.813,10.813,0,0,1-3.9,2.583ZM9.891,18.589a10.873,10.873,0,0,1-3.484-1.8A2.712,2.712,0,0,1,5.3,15.045c0-1.081,1.622-2.433,4.325-3.364q.506-.165,1.021-.3a32.545,32.545,0,0,0,1.472,3.694,31.536,31.536,0,0,0-1.5,3.754q-.363-.111-.721-.24Zm1.442-9.641c-.571-2.823-.18-4.956.751-5.5.991-.541,3.214.27,5.526,2.283l.451.42a26.788,26.788,0,0,0-2.523,3.094,31.6,31.6,0,0,0-3.995.6q-.117-.448-.21-.9Zm12.885,3.124q-.435-.745-.9-1.472,1.362.175,2.7.481a26.519,26.519,0,0,1-.961,2.523q-.4-.774-.841-1.532ZM18.9,7.026a20.239,20.239,0,0,1,1.742,2.1q-1.756-.081-3.514,0,.833-1.095,1.772-2.1Zm-5.286,5.046-.841,1.5q-.543-1.237-.961-2.523,1.34-.289,2.7-.451l-.9,1.5Zm.931,7.509a27.633,27.633,0,0,1-2.733-.451q.416-1.315.961-2.583.828,1.544,1.8,3Zm4.385,3.544q-.952-1.006-1.8-2.1,1.771.069,3.544,0A26.734,26.734,0,0,1,18.931,23.125Zm6.1-6.608c.39.9.721,1.742.991,2.553a27.452,27.452,0,0,1-2.793.481q.963-1.495,1.8-3.064Zm-1.982.9A26.363,26.363,0,0,1,21.6,19.7a39.134,39.134,0,0,1-5.406,0,35.021,35.021,0,0,1-2.733-4.625,35.141,35.141,0,0,1,2.7-4.625,36.581,36.581,0,0,1,5.436,0,37.6,37.6,0,0,1,2.7,4.6q-.587,1.224-1.261,2.4Zm2.643-14c.991.6,1.382,2.853.751,5.857q-.054.3-.12.6a30.967,30.967,0,0,0-3.995-.631A29.556,29.556,0,0,0,19.8,6.155q.337-.324.691-.631c2.193-1.892,4.235-2.613,5.2-2.1Zm-6.818,9.011a2.628,2.628,0,1,1,0-.03Z" transform="translate(-3.884 -2.01)" fill="#00d8ff"/></g><path d="M18.209,37.876a3,3,0,0,1-1.412-.36L12.292,34.9c-.661-.36-.3-.511-.12-.571a8.23,8.23,0,0,0,2.012-.9c.12-.06.24,0,.36.03L17.969,35.5a.512.512,0,0,0,.42,0l13.426-7.659a.392.392,0,0,0,.21-.36V12.166a.364.364,0,0,0-.21-.36L18.389,4.177a.512.512,0,0,0-.42,0L4.513,11.805a.469.469,0,0,0-.18.36V27.484a.428.428,0,0,0,.18.36l3.694,2.1c1.982.961,3.214-.18,3.214-1.352V13.517a.43.43,0,0,1,.42-.42h1.712a.43.43,0,0,1,.42.42V28.595c0,2.613-1.472,4.145-3.995,4.145A5.747,5.747,0,0,1,6.886,31.9L3.342,29.917a2.793,2.793,0,0,1-1.412-2.4V12.2a2.79,2.79,0,0,1,1.412-2.4L16.8,2.134a3.064,3.064,0,0,1,2.823,0L33.076,9.793a2.79,2.79,0,0,1,1.412,2.4V27.514a2.793,2.793,0,0,1-1.412,2.4L19.621,37.575a3.484,3.484,0,0,1-1.412.3Zm4.145-10.512c-5.887,0-7.118-2.643-7.118-4.9a.4.4,0,0,1,.42-.39H17.4c.21,0,.36.12.36.3.3,1.8,1.051,2.643,4.625,2.643,2.823,0,4.055-.631,4.055-2.1,0-.9-.33-1.5-4.746-1.952-3.694-.36-6.007-1.171-6.007-4.055,0-2.7,2.313-4.265,6.157-4.265,4.325,0,6.427,1.472,6.7,4.655a.541.541,0,0,1-.09.3.447.447,0,0,1-.27.12H26.439a.39.39,0,0,1-.39-.3c-.39-1.8-1.442-2.4-4.2-2.4-3.094,0-3.454,1.051-3.454,1.832,0,.961.42,1.261,4.6,1.8,4.145.511,6.1,1.292,6.1,4.145,0,2.913-2.463,4.565-6.728,4.565Z" transform="translate(56.062 51.969)" fill="#539e43"/><path d="M32.033,30.045a1.682,1.682,0,0,0-.871-1.442l-14.3-8.109a2.1,2.1,0,0,0-.751-.21h-.15a1.622,1.622,0,0,0-.781.21L.917,28.6a1.682,1.682,0,0,0-.9,1.442L.046,51.82a.8.8,0,0,0,.451.721.841.841,0,0,0,.841,0l8.5-4.776a1.682,1.682,0,0,0,.9-1.472V36.112a1.618,1.618,0,0,1,.841-1.442l3.6-2.072a1.652,1.652,0,0,1,.9-.21,1.592,1.592,0,0,1,.841.21l3.6,2.072a1.682,1.682,0,0,1,.871,1.442V46.324a1.646,1.646,0,0,0,.871,1.442l8.5,4.776a.9.9,0,0,0,.871,0,.811.811,0,0,0,.451-.721ZM100.753.1a.931.931,0,0,0-.841,0,.871.871,0,0,0-.451.751V22.386a.631.631,0,0,1-.3.541.661.661,0,0,1-.6,0l-3.6-2.012a1.772,1.772,0,0,0-1.712,0L78.978,29.024a1.682,1.682,0,0,0-.9,1.472V46.714a1.675,1.675,0,0,0,.9,1.442l14.267,8.109a1.772,1.772,0,0,0,1.742,0l14.3-8.109a1.682,1.682,0,0,0,.871-1.442V6.287a1.682,1.682,0,0,0-.9-1.5ZM99.432,41.368a.34.34,0,0,1-.21.36l-4.9,2.793a.511.511,0,0,1-.42,0l-4.9-2.793a.458.458,0,0,1-.21-.36V35.782a.417.417,0,0,1,.21-.36l4.9-2.763a.511.511,0,0,1,.42,0l4.9,2.763a.425.425,0,0,1,.21.36ZM148.3,35.661a1.652,1.652,0,0,0,.841-1.472V30.255a1.712,1.712,0,0,0-.841-1.472l-14.207-8.049a1.772,1.772,0,0,0-1.712,0l-14.3,8.109a1.682,1.682,0,0,0-.871,1.5V46.534a1.663,1.663,0,0,0,.9,1.472l14.177,7.959a1.682,1.682,0,0,0,1.682,0l8.59-4.715a.811.811,0,0,0,.451-.721.885.885,0,0,0-.451-.751l-14.357-8.109a.871.871,0,0,1-.451-.751V35.842a.8.8,0,0,1,.451-.721l4.505-2.523a.841.841,0,0,1,.841,0l4.505,2.523a.871.871,0,0,1,.421.721v3.995a.8.8,0,0,0,.451.721.818.818,0,0,0,.9,0l8.47-4.866Z" transform="translate(0.489 0)" fill="#333"/><path d="M7.231,1.21a.3.3,0,0,1,.33,0l2.733,1.562a.36.36,0,0,1,.18.3V6.166a.36.36,0,0,1-.18.3l-2.7,1.562a.3.3,0,0,1-.36,0l-2.7-1.562a.36.36,0,0,1-.18-.3V3.072a.331.331,0,0,1,.15-.3Z" transform="translate(126.269 33.701)" fill="#539e43"/><g transform="translate(40.001 20.533)"><path d="M32,8.945,17.73.835a2.373,2.373,0,0,0-.42-.15L1.331,27.626a1.528,1.528,0,0,0,.481.39l14.237,8.049a1.726,1.726,0,0,0,1.322.18L32.387,9.215a1.772,1.772,0,0,0-.39-.3Z" transform="translate(-1.331 -0.634)" fill="url(#b)"/><path d="M31.5,28.066a1.892,1.892,0,0,0,.841-1.081L16.727.734A1.742,1.742,0,0,0,15.5.885L1.349,8.994,16.607,36.386a2.4,2.4,0,0,0,.631-.21Z" transform="translate(-0.808 -0.683)" fill-rule="evenodd" fill="url(#c)"/><path d="M16.725,2.639,2.489,10.719a2.072,2.072,0,0,1-.631.18l.27.511L17.9,2.4v-.18l-.39-.661a1.532,1.532,0,0,1-.781,1.081Z" transform="translate(13.97 24.714)" fill-rule="evenodd" fill="url(#d)"/></g><path d="M1.661,26.307V14.834H16.017v-.721H1.661V3.631H16.919V3H1V26.968H17.039v-.661H1.661ZM29.984,9.728l-5.947,7.809-5.8-7.809h-.9l6.307,8.32-6.908,8.92h.811l6.488-8.41,6.518,8.41H31.4l-6.908-8.92,6.307-8.32h-.811Zm3.424,23.157V22.132h.06a6.908,6.908,0,0,0,2.4,3.784,6.983,6.983,0,0,0,4.505,1.442,6.7,6.7,0,0,0,5.466-2.7,9.13,9.13,0,0,0,1.412-2.883,12.134,12.134,0,0,0,0-7.058,8.62,8.62,0,0,0-1.472-2.853,6.728,6.728,0,0,0-5.406-2.553,7.448,7.448,0,0,0-2.4.39,6.518,6.518,0,0,0-2.012,1.081,7.389,7.389,0,0,0-2.493,3.784h-.03V9.728h-.661V32.885h.661Zm7-6.187A6.428,6.428,0,0,1,35.3,24.535c-1.261-1.412-1.862-3.514-1.862-6.217a10.09,10.09,0,0,1,.481-3.184,8.26,8.26,0,0,1,1.352-2.673,6.4,6.4,0,0,1,5.166-2.493,5.947,5.947,0,0,1,5.016,2.493,8.53,8.53,0,0,1,1.231,2.7,11.684,11.684,0,0,1-1.141,8.83,5.8,5.8,0,0,1-5.106,2.7Zm11.053.3V17.207a9.6,9.6,0,0,1,.39-2.763,6.728,6.728,0,0,1,1.231-2.373,5.827,5.827,0,0,1,2.132-1.592A6.488,6.488,0,0,1,58.307,10V9.307a8.32,8.32,0,0,0-2.7.33,6.578,6.578,0,0,0-2.012,1.021,5.136,5.136,0,0,0-1.352,1.5,6.7,6.7,0,0,0-.721,1.8h-.06V9.728h-.691v17.24h.691Zm7.689-8.53H73.565a11.955,11.955,0,0,0-.33-3.424,8.529,8.529,0,0,0-1.352-2.913,6.848,6.848,0,0,0-5.857-2.823,6.938,6.938,0,0,0-5.256,2.4,8.95,8.95,0,0,0-1.682,2.823,10.722,10.722,0,0,0-.6,3.814,13.952,13.952,0,0,0,.42,3.6,8.093,8.093,0,0,0,1.352,2.853A5.916,5.916,0,0,0,62.572,26.7a8.056,8.056,0,0,0,3.454.661,7.558,7.558,0,0,0,4.956-1.682,6.908,6.908,0,0,0,2.4-4.685h-.691a6.458,6.458,0,0,1-2.223,4.3A7.028,7.028,0,0,1,65.966,26.7a6.908,6.908,0,0,1-3.124-.6,5.647,5.647,0,0,1-2.1-1.772,7.629,7.629,0,0,1-1.2-2.613,14,14,0,0,1-.39-3.244ZM72.9,17.807H59.148a10.392,10.392,0,0,1,.661-3.244,8.079,8.079,0,0,1,1.5-2.493,6.247,6.247,0,0,1,4.806-2.1,6.4,6.4,0,0,1,2.913.631,6.1,6.1,0,0,1,2.132,1.712A7.509,7.509,0,0,1,72.483,14.8a10.212,10.212,0,0,1,.42,3Zm14.6-3h.691a5.115,5.115,0,0,0-1.682-4.2,7.238,7.238,0,0,0-4.565-1.292,8.019,8.019,0,0,0-2.7.42,5.436,5.436,0,0,0-1.832,1.021,3.754,3.754,0,0,0-1.021,1.412,4.055,4.055,0,0,0-.3,1.5,4.346,4.346,0,0,0,.511,2.223,3.3,3.3,0,0,0,1.592,1.322,12.136,12.136,0,0,0,1.682.6q2.155.641,4.355,1.111a7.87,7.87,0,0,1,1.892.721,4.242,4.242,0,0,1,1.352,1.171,3.034,3.034,0,0,1,.511,1.832,3.3,3.3,0,0,1-.511,1.892A4.2,4.2,0,0,1,86.149,25.8a5.887,5.887,0,0,1-1.8.691,8.951,8.951,0,0,1-1.922.21,7.118,7.118,0,0,1-4.685-1.352,5.19,5.19,0,0,1-1.652-4.265h-.661A5.9,5.9,0,0,0,77.2,25.827a7.754,7.754,0,0,0,5.226,1.5,10.211,10.211,0,0,0,2.223-.24,6.217,6.217,0,0,0,2.012-.811,4.2,4.2,0,0,0,2.012-3.694,3.724,3.724,0,0,0-.511-2.012A4.085,4.085,0,0,0,86.9,19.279a6.788,6.788,0,0,0-1.8-.781q-2.209-.65-4.445-1.2a15.017,15.017,0,0,1-1.982-.6,3.334,3.334,0,0,1-1.382-1.081,3.214,3.214,0,0,1-.511-1.982,3.949,3.949,0,0,1,.12-.811,3,3,0,0,1,.631-1.231,4.3,4.3,0,0,1,1.562-1.111A6.848,6.848,0,0,1,81.944,10a8.739,8.739,0,0,1,2.253.27,4.715,4.715,0,0,1,1.8.841,3.9,3.9,0,0,1,1.111,1.5,5.432,5.432,0,0,1,.42,2.223Zm15.558,0h.691a5.207,5.207,0,0,0-1.682-4.2A7.238,7.238,0,0,0,97.5,9.307a8.019,8.019,0,0,0-2.733.42,5.437,5.437,0,0,0-1.8,1.021,3.755,3.755,0,0,0-1.021,1.412,4.055,4.055,0,0,0-.3,1.5,4.346,4.346,0,0,0,.511,2.223,3.3,3.3,0,0,0,1.562,1.322,12.165,12.165,0,0,0,1.682.6q2.17.642,4.385,1.111a7.87,7.87,0,0,1,1.892.721,4.242,4.242,0,0,1,1.352,1.171,3.033,3.033,0,0,1,.511,1.832,3.3,3.3,0,0,1-.511,1.892,4.205,4.205,0,0,1-1.352,1.261,5.917,5.917,0,0,1-1.8.691,8.95,8.95,0,0,1-1.922.21,7.118,7.118,0,0,1-4.685-1.352,5.27,5.27,0,0,1-1.622-4.265h-.661a5.994,5.994,0,0,0,1.742,4.746,7.807,7.807,0,0,0,5.226,1.5,10.211,10.211,0,0,0,2.253-.24,6.217,6.217,0,0,0,2.012-.811,4.2,4.2,0,0,0,2.012-3.694,3.724,3.724,0,0,0-.511-2.012,4.085,4.085,0,0,0-1.261-1.291,6.788,6.788,0,0,0-1.8-.781q-2.209-.65-4.445-1.2a15.015,15.015,0,0,1-1.982-.6,3.3,3.3,0,0,1-1.382-1.081,3.214,3.214,0,0,1-.541-1.982l.15-.811a3,3,0,0,1,.631-1.231,4.3,4.3,0,0,1,1.562-1.111A6.848,6.848,0,0,1,97.5,10a8.906,8.906,0,0,1,2.253.27,4.715,4.715,0,0,1,1.772.841,3.9,3.9,0,0,1,1.141,1.5,5.454,5.454,0,0,1,.39,2.223Z" transform="translate(29.06 87.115)" fill="#333"/></g></svg>