<svg xmlns="http://www.w3.org/2000/svg" xmlns:xlink="http://www.w3.org/1999/xlink"  viewBox="0 0 150.2 120">
  <defs>
    <linearGradient id="c" x1=".4" y1=".6" x2="1.7" y2="0" gradientUnits="objectBoundingBox">
      <stop offset=".1" stop-color="#41873f"/>
      <stop offset=".4" stop-color="#54a044"/>
      <stop offset=".7" stop-color="#66b848"/>
      <stop offset=".9" stop-color="#6cc04a"/>
    </linearGradient>
    <linearGradient id="a" x1="0" y1=".5" x2="1" y2=".5" gradientUnits="objectBoundingBox">
      <stop offset=".1" stop-color="#6cc04a"/>
      <stop offset=".3" stop-color="#66b848"/>
      <stop offset=".6" stop-color="#54a044"/>
      <stop offset=".9" stop-color="#41873f"/>
    </linearGradient>
    <linearGradient id="d" x1="-1" y1=".5" x2="1" y2=".5" xlink:href="#a"/>
    <clipPath id="b">
      <path d="M0 0h30v26.1H0z" fill="#fff"/>
    </clipPath>
  </defs>
  <path d="M13.2 72c-1.5-7-5.2-9.2-5.7-10.1a9.3 9.3 0 01-.9-1.8v.6h-.1V61h-.1v.1h-.1v.1h-.1v.1H6v.1H6v.2h-.2l-.1.1-.2.2A17.2 17.2 0 000 75.5a13.6 13.6 0 003 7.7A16.8 16.8 0 006 86.4a10.1 10.1 0 01.5 3.4l.9.3a16.4 16.4 0 010-3.1A2 2 0 018 86a9.6 9.6 0 001-.8A14.3 14.3 0 0013.3 72z" fill="#4db33d"/>
  <g transform="translate(120.2 60)" clip-path="url(#b)">
    <path d="M24.6 8.5l-.9-.3.1-.7c.8-3.4.3-6.2-1.3-7.2-1.6-.9-4.1 0-6.7 2.3l-.8.6-.5-.4C11.8.5 9.1-.5 7.5.4c-1.5.9-2 3.5-1.3 6.8l.2 1-1.1.3C2 9.5 0 11.3 0 13c0 1.8 2.2 3.7 5.5 4.8l.8.2-.3 1c-.6 3.3-.1 5.9 1.5 6.7 1.6 1 4.2 0 6.9-2.2l.6-.6.8.7c2.5 2.2 5 3 6.6 2.1 1.6-.9 2-3.6 1.4-7l-.1-.7.5-.2c3.4-1.1 5.6-3 5.6-4.8 0-1.8-2-3.5-5.2-4.5zm-.7 8l-.5.3a29 29 0 00-1.5-3.8 29.1 29.1 0 001.4-3.6l1 .3c2.7.9 4.4 2.3 4.4 3.3 0 1.1-1.8 2.6-4.8 3.6zM22.7 19a10.7 10.7 0 01.1 3.9 2.5 2.5 0 01-1 1.8c-.9.5-3-.2-5-2q-.5-.3-.8-.7a29.5 29.5 0 002.5-3.1 31.2 31.2 0 004-.6l.2.7zm-12.4 5.6a2.8 2.8 0 01-2.1 0c-1-.5-1.3-2.5-.8-5.3l.2-1a26.4 26.4 0 004 .6 39 39 0 002.6 3.1 10.8 10.8 0 01-3.9 2.6zm-4.3-8a10.9 10.9 0 01-3.5-1.8 2.7 2.7 0 01-1-1.8c0-1 1.5-2.4 4.2-3.3l1-.3A32.5 32.5 0 008.3 13a31.5 31.5 0 00-1.5 3.7l-.7-.2zm1.4-9.7c-.5-2.8-.1-5 .8-5.5 1-.5 3.2.3 5.5 2.3l.5.4a26.8 26.8 0 00-2.5 3.1 31.6 31.6 0 00-4 .6L7.4 7zm13 3.2l-1-1.5 2.7.5a26.5 26.5 0 01-1 2.5q-.3-.8-.8-1.5zM15 5a20.2 20.2 0 011.8 2h-3.6l1.8-2zm-5.3 5L9 11.6 7.9 9l2.7-.4-.9 1.5zm1 7.5a27.6 27.6 0 01-2.8-.5l1-2.6q.8 1.6 1.8 3zM15 21l-1.8-2h3.6a26.7 26.7 0 01-1.8 2zm6.1-6.6c.4 1 .8 1.7 1 2.6a27.5 27.5 0 01-2.8.4l1.8-3zm-2 1a26.4 26.4 0 01-1.4 2.2 39.1 39.1 0 01-5.4 0A35 35 0 019.6 13a35.1 35.1 0 012.7-4.7 36.6 36.6 0 015.4 0 37.6 37.6 0 012.7 4.6l-1.2 2.4zm2.7-14c1 .5 1.4 2.8.8 5.8l-.2.6a31 31 0 00-4-.7 29.6 29.6 0 00-2.5-3l.7-.7c2.2-1.9 4.2-2.6 5.2-2zm-6.8 9a2.6 2.6 0 110-.1z" fill="#00d8ff"/>
  </g>
  <path d="M74.3 89.8a3 3 0 01-1.4-.3l-4.5-2.6c-.7-.4-.3-.5-.2-.6a8.2 8.2 0 002-.9h.4l3.4 2a.5.5 0 00.5 0l13.4-7.6a.4.4 0 00.2-.4V64.1a.4.4 0 00-.2-.3L74.5 56a.5.5 0 00-.5 0l-13.4 7.7a.5.5 0 00-.2.3v15.4a.4.4 0 00.2.3l3.7 2.1c2 1 3.2-.2 3.2-1.3V65.5a.4.4 0 01.4-.4h1.7a.4.4 0 01.4.4v15c0 2.7-1.4 4.2-4 4.2a5.7 5.7 0 01-3-.8l-3.6-2a2.8 2.8 0 01-1.4-2.4V64.2a2.8 2.8 0 011.4-2.4L72.9 54a3 3 0 012.8 0L89 61.8a2.8 2.8 0 011.5 2.4v15.3a2.8 2.8 0 01-1.5 2.4l-13.4 7.6a3.5 3.5 0 01-1.4.3zm4.1-10.5c-5.9 0-7.1-2.6-7.1-4.9a.4.4 0 01.4-.4h1.8c.2 0 .3.2.3.3.3 1.8 1 2.7 4.6 2.7 2.9 0 4.1-.6 4.1-2.1 0-1-.3-1.5-4.7-2-3.7-.3-6-1.1-6-4 0-2.7 2.3-4.3 6.1-4.3 4.3 0 6.4 1.5 6.7 4.7a.5.5 0 010 .3.4.4 0 01-.4 0h-1.7a.4.4 0 01-.4-.2c-.4-1.8-1.4-2.4-4.2-2.4-3 0-3.4 1-3.4 1.8 0 1 .4 1.3 4.6 1.8 4.1.5 6 1.3 6 4.2 0 2.9-2.4 4.5-6.7 4.5z" fill="#539e43"/>
  <path d="M32.5 30a1.7 1.7 0 00-.8-1.4l-14.3-8.1a2.1 2.1 0 00-.8-.2h-.1a1.6 1.6 0 00-.8.2L1.4 28.6A1.7 1.7 0 00.5 30v21.8a.8.8 0 00.5.7.8.8 0 00.8 0l8.5-4.7a1.7 1.7 0 001-1.5V36a1.6 1.6 0 01.8-1.4l3.6-2.1a1.7 1.7 0 01.9-.2 1.6 1.6 0 01.8.2l3.6 2a1.7 1.7 0 01.9 1.5v10.2a1.6 1.6 0 00.9 1.5l8.5 4.7a.9.9 0 00.8 0 .8.8 0 00.5-.7zM101.2.1a1 1 0 00-.8 0 .9.9 0 00-.4.8v21.5a.6.6 0 01-.3.5.7.7 0 01-.6 0l-3.6-2a1.8 1.8 0 00-1.8 0L79.5 29a1.7 1.7 0 00-1 1.5v16.2a1.7 1.7 0 001 1.5l14.2 8a1.8 1.8 0 001.8 0l14.3-8a1.7 1.7 0 00.8-1.5V6.3a1.7 1.7 0 00-.9-1.5zM100 41.4a.3.3 0 01-.2.3l-4.9 2.8a.5.5 0 01-.4 0l-5-2.8a.5.5 0 01-.1-.3v-5.6a.4.4 0 01.2-.4l4.9-2.7a.5.5 0 01.4 0l5 2.7a.4.4 0 01.1.4zm48.9-5.7a1.7 1.7 0 00.8-1.5v-4a1.7 1.7 0 00-.8-1.4l-14.2-8a1.8 1.8 0 00-1.7 0l-14.3 8a1.7 1.7 0 00-.9 1.5v16.2a1.7 1.7 0 00.9 1.5l14.2 8a1.7 1.7 0 001.7 0l8.5-4.7a.8.8 0 00.5-.8.9.9 0 00-.5-.7l-14.3-8.1a.9.9 0 01-.5-.8v-5a.8.8 0 01.5-.8l4.5-2.5a.8.8 0 01.8 0l4.5 2.5a.9.9 0 01.5.7v4a.8.8 0 00.4.8.8.8 0 001 0l8.4-5z" fill="var(--theme)"/>
  <path d="M133.5 35a.3.3 0 01.3 0l2.8 1.5a.4.4 0 01.1.3v3a.4.4 0 01-.1.4l-2.7 1.5a.3.3 0 01-.4 0l-2.7-1.5a.4.4 0 01-.2-.3v-3.1a.3.3 0 01.2-.3z" fill="#539e43"/>
  <path d="M32 9L17.7.7a2.4 2.4 0 00-.4-.1l-16 27a1.5 1.5 0 00.5.3L16 36a1.7 1.7 0 001.4.2l15-27A1.8 1.8 0 0032 9z" transform="translate(38.7 19.9)" fill="url(#c)"/>
  <path d="M31.5 28a1.9 1.9 0 00.8-1L16.7.7a1.7 1.7 0 00-1.2.2l-14.2 8 15.3 27.5a2.4 2.4 0 00.6-.2z" transform="translate(39.2 19.9)" fill-rule="evenodd" fill="url(#a)"/>
  <path d="M16.7 2.6L2.5 10.7a2 2 0 01-.6.2l.2.5 15.8-9v-.2l-.4-.6a1.5 1.5 0 01-.8 1z" transform="translate(54 45.2)" fill-rule="evenodd" fill="url(#d)"/>
  <path d="M30.7 113.4V102h14.4v-.7H30.7V90.7H46v-.6H30v24h16.1v-.7H30.7zM59 96.8l-5.9 7.9-5.8-7.9h-.9l6.3 8.4-6.9 8.9h.8l6.5-8.4 6.5 8.4h.9l-7-9 6.4-8.3H59zm3.5 23.2v-10.8A7 7 0 0065 113a7 7 0 004.5 1.5 6.7 6.7 0 005.5-2.7 9.1 9.1 0 001.4-3 12.1 12.1 0 000-7 8.6 8.6 0 00-1.5-2.8 6.7 6.7 0 00-5.4-2.6 7.4 7.4 0 00-2.4.4 6.5 6.5 0 00-2 1.1 7.4 7.4 0 00-2.5 3.8v-4.9h-.7V120h.7zm7-6.2a6.4 6.4 0 01-5.1-2.2c-1.3-1.4-1.9-3.5-1.9-6.2a10 10 0 01.5-3.2 8.3 8.3 0 011.3-2.6 6.4 6.4 0 015.2-2.5 6 6 0 015 2.5 8.5 8.5 0 011.2 2.7 11.7 11.7 0 01-1.1 8.8 5.8 5.8 0 01-5.1 2.7zm11 .3v-9.8a9.6 9.6 0 01.4-2.7 6.7 6.7 0 011.2-2.4 5.8 5.8 0 012.2-1.6 6.5 6.5 0 013-.5v-.7a8.3 8.3 0 00-2.6.4 6.6 6.6 0 00-2 1 5.1 5.1 0 00-1.4 1.5 6.7 6.7 0 00-.7 1.8v-4.3h-.8v17.3h.7zm7.7-8.5h14.4a12 12 0 00-.3-3.4 8.5 8.5 0 00-1.4-3 6.8 6.8 0 00-5.8-2.8 7 7 0 00-5.3 2.4 9 9 0 00-1.7 2.8 10.7 10.7 0 00-.6 3.9 14 14 0 00.5 3.6 8 8 0 001.3 2.8 6 6 0 002.3 2 8 8 0 003.5.6 7.6 7.6 0 005-1.7 7 7 0 002.3-4.7h-.6a6.5 6.5 0 01-2.3 4.3 7 7 0 01-4.5 1.4 7 7 0 01-3.1-.6 5.6 5.6 0 01-2.1-1.8 7.6 7.6 0 01-1.2-2.6 14 14 0 01-.4-3.2zm13.8-.7H88.2a10.4 10.4 0 01.7-3.2 8 8 0 011.5-2.5 6.2 6.2 0 014.8-2.1 6.4 6.4 0 012.9.6 6.1 6.1 0 012.1 1.7 7.5 7.5 0 011.3 2.5 10.2 10.2 0 01.5 3zm14.6-3h.7a5.1 5.1 0 00-1.7-4.2 7.2 7.2 0 00-4.6-1.3 8 8 0 00-2.7.4 5.4 5.4 0 00-1.8 1 3.8 3.8 0 00-1 1.5 4 4 0 00-.3 1.5 4.3 4.3 0 00.5 2.2 3.3 3.3 0 001.6 1.3 12.1 12.1 0 001.6.6q2.2.7 4.4 1.1a7.9 7.9 0 011.9.8 4.2 4.2 0 011.3 1.1 3 3 0 01.5 1.9 3.3 3.3 0 01-.5 1.9 4.2 4.2 0 01-1.3 1.2 5.9 5.9 0 01-1.8.7 9 9 0 01-2 .2 7.1 7.1 0 01-4.6-1.3 5.2 5.2 0 01-1.6-4.3h-.7a5.9 5.9 0 001.8 4.7 7.8 7.8 0 005.2 1.5 10.2 10.2 0 002.2-.2 6.2 6.2 0 002-.8 4.2 4.2 0 002-3.7 3.7 3.7 0 00-.5-2 4 4 0 00-1.2-1.3 6.8 6.8 0 00-1.8-.8l-4.5-1.2a15 15 0 01-2-.6 3.3 3.3 0 01-1.3-1 3.2 3.2 0 01-.6-2 4 4 0 01.2-.9 3 3 0 01.6-1.2 4.3 4.3 0 011.6-1.1 6.8 6.8 0 012.8-.5 8.7 8.7 0 012.3.3 4.7 4.7 0 011.8.8 3.9 3.9 0 011 1.5 5.4 5.4 0 01.5 2.2zm15.5 0h.7a5.2 5.2 0 00-1.7-4.2 7.2 7.2 0 00-4.5-1.3 8 8 0 00-2.8.4 5.4 5.4 0 00-1.8 1 3.8 3.8 0 00-1 1.5 4 4 0 00-.3 1.5 4.3 4.3 0 00.5 2.2 3.3 3.3 0 001.6 1.3 12.2 12.2 0 001.7.6q2.1.7 4.3 1.1a7.9 7.9 0 012 .8 4.2 4.2 0 011.3 1.1 3 3 0 01.5 1.9 3.3 3.3 0 01-.5 1.8 4.2 4.2 0 01-1.4 1.3 6 6 0 01-1.8.7 9 9 0 01-1.9.2 7.1 7.1 0 01-4.7-1.3 5.3 5.3 0 01-1.6-4.3h-.7a6 6 0 001.8 4.7 7.8 7.8 0 005.2 1.5 10.2 10.2 0 002.3-.2 6.2 6.2 0 002-.8 4.2 4.2 0 002-3.7 3.7 3.7 0 00-.5-2 4 4 0 00-1.3-1.3 6.8 6.8 0 00-1.8-.8l-4.4-1.2a15 15 0 01-2-.6 3.3 3.3 0 01-1.4-1 3.2 3.2 0 01-.5-2l.1-.9a3 3 0 01.7-1.2 4.3 4.3 0 011.5-1.1 6.8 6.8 0 012.9-.5 9 9 0 012.2.3 4.7 4.7 0 011.8.8 3.9 3.9 0 011.1 1.5 5.5 5.5 0 01.4 2.2z" fill="var(--theme)"/>
</svg>
