<svg xmlns="http://www.w3.org/2000/svg" viewBox="0 0 124 124">
    <path d="M49.8 29a6 6 0 003-8l-4.9-10.3c-1.4-2.9-4.8-4.2-7.8-2.9a68.9 68.9 0 00-21.6 14A52.2 52.2 0 004 44.8C1.4 53.2 0 65 0 79.8v30.7a6 6 0 006 6h39.3a6 6 0 006-6V71.3a6 6 0 00-6-6H26.5a42.2 42.2 0 017-24.3 38 38 0 0116.3-12zM120.4 29a6 6 0 003-8l-4.9-10.2c-1.4-2.9-4.8-4.2-7.8-2.9a72.4 72.4 0 00-21.5 14 53.4 53.4 0 00-14.6 23 124 124 0 00-3.9 35v30.7a6 6 0 006 6H116a6 6 0 006-6V71.3a6 6 0 00-6-6H97.1a42.2 42.2 0 017-24.3 38 38 0 0116.3-12z" fill="#f4f4f4"/>
</svg>

