<svg height="512" viewBox="0 0 512 512" width="512" xmlns="http://www.w3.org/2000/svg">
  <path d="M258.7 150.2h79.1c7 0 12.5-5.6 12.5-12.5V58.2c0-7-5.6-12.5-12.5-12.5h-79.1c-7 0-12.5 5.6-12.5 12.5V77a7.5 7.5 0 1015 0V60.7h74.1v74.5h-74.1v-22.1a7.5 7.5 0 10-15 0v24.6c0 6.9 5.6 12.5 12.5 12.5zM119 138h102.2a7.5 7.5 0 100-15H119a7.5 7.5 0 100 15zM290 194c0-4.2-3.4-7.5-7.5-7.5H179.4a7.5 7.5 0 100 15h103c4.2 0 7.6-3.4 7.6-7.5zM119 105.4h102.2a7.5 7.5 0 100-15H119a7.5 7.5 0 100 15zM119 72.8h102.2a7.5 7.5 0 100-15H119a7.5 7.5 0 100 15zM119 284.5h153.8a7.5 7.5 0 100-15H119a7.5 7.5 0 100 15zM119 242.5h121.7a7.5 7.5 0 100-15H119a7.5 7.5 0 100 15zM343.3 227.5h-70.1a7.5 7.5 0 100 15h70.1a7.5 7.5 0 100-15z"/>
  <path d="M503.3 464l-.3-.3-46.2-41.1a97.9 97.9 0 0012-43.7 7.5 7.5 0 00-15-.5 83 83 0 01-165.7-3c-.6-45 38-83.9 83-83.2a83 83 0 0178 55.2 7.5 7.5 0 0014.1-5 98.2 98.2 0 00-80.4-64.5V12.5c0-6.9-5.6-12.5-12.5-12.5H91.5C84.5 0 79 5.6 79 12.5v27.1H52c-6.9 0-12.5 5.6-12.5 12.5v27.2h-27C5.6 79.3 0 84.9 0 91.8v374.1c0 6.9 5.6 12.5 12.5 12.5h238.8c7 0 12.5-5.6 12.5-12.5v-27.1h32.6a97.6 97.6 0 00121 23l46.5 41.7c11 11 29 11.5 40 .6a28.3 28.3 0 00-.6-40.2zM94 15h273.8v262.2a98 98 0 00-78.1 43.5h-30.5a7.5 7.5 0 100 15h22.2a98.2 98.2 0 00-7.9 48.4H169.2a54 54 0 0016.7-39v-9.4h40.8a7.5 7.5 0 100-15h-48.3a7.5 7.5 0 00-7.5 7.5V345a39 39 0 01-39 39.1H94zM54.5 423.8V321.3a7.5 7.5 0 10-15 0v105c0 6.9 5.6 12.5 12.5 12.5h196.8v24.6H15V94.3h24.5v195.2a7.5 7.5 0 1015 0V54.6H79v337c0 4.2 3.3 7.5 7.5 7.5H276c2.1 8.8 5.5 17 9.8 24.7H54.5zm439 69.6c-5.3 5.2-14 4.7-19.4-1l-43.7-39c6.8-5.2 13-11.4 18.1-18.1l44.4 39.4c5 5 5.7 13.8.5 18.7z"/>
  <path d="M371 311.2a64 64 0 000 128.2 64 64 0 000-128.2zm0 113.2a49 49 0 010-98.2 49 49 0 010 98.2z"/>
</svg>
