<svg width="649" height="403" viewBox="0 0 649 403" fill="none" xmlns="http://www.w3.org/2000/svg">
  <path d="M126 82.5A127.3 127.3 0 0080.3 100l-1.6 1A127.8 127.8 0 0022 230.6l24.1 137.5a5.6 5.6 0 006.5 4.5 1742.2 1742.2 0 00314.6-25.4c95.3-17 186.3-43 270.7-77.2h.1a5.6 5.6 0 004.5-6.5l-45.2-258A5.6 5.6 0 00591 1L126 82.5z" fill="#FBFF2E"/>
  <path d="M473.1 134.7a3.7 3.7 0 001.3 7.2l90.7-16a3.7 3.7 0 10-1.2-7.1L473 134.7z" fill="#3F3D56"/>
  <path d="M584.3 114.1a.7.7 0 00-.2.6.7.7 0 00.3.4l3.6 2.6-7.5 1.3a.7.7 0 00-.6.8.7.7 0 00.8.6l7.6-1.3-2.5 3.6a.7.7 0 00-.2.5.7.7 0 00.6.6.7.7 0 00.5 0l.2-.3 3.6-5a.7.7 0 00-.2-1l-5-3.5a.7.7 0 00-1 .1zM452.3 137.3a.7.7 0 01.3.4.7.7 0 010 .6l-2.6 3.6 7.5-1.3a.7.7 0 01.6 0 .7.7 0 01.3.5.7.7 0 01-.6.9l-7.6 1.3 3.6 2.5a.7.7 0 11-.8 1.2l-5-3.5a.7.7 0 01-.2-1l3.5-5a.7.7 0 01.5-.3.7.7 0 01.5 0z" fill="#000E14"/>
  <g opacity=".4" fill="#000">
    <path opacity=".4" d="M463.6 59a4 4 0 10-1.3-7.9 4 4 0 001.3 7.8zM479.8 56a4 4 0 10-1.3-7.7 4 4 0 001.3 7.8zM496 53.2a4 4 0 10-1.3-7.8 4 4 0 001.3 7.8zM512.2 50.4a4 4 0 10-1.3-7.8 4 4 0 001.3 7.8zM528.4 47.5a4 4 0 10-1.3-7.7 4 4 0 001.3 7.7zM544.6 44.7a4 4 0 10-1.3-7.8 4 4 0 001.3 7.8zM560.8 41.9a4 4 0 10-1.3-7.8 4 4 0 001.3 7.8zM465.8 71.2a4 4 0 10-1.4-7.8 4 4 0 001.4 7.8zM482 68.4a4 4 0 10-1.4-7.8 4 4 0 001.4 7.8zM498.2 65.5a4 4 0 10-1.4-7.7 4 4 0 001.4 7.7zM514.4 62.7a4 4 0 10-1.4-7.8 4 4 0 001.4 7.8zM530.6 59.9a4 4 0 10-1.4-7.8 4 4 0 001.4 7.8zM546.8 57a4 4 0 10-1.4-7.8 4 4 0 001.4 7.8zM563 54.2a4 4 0 10-1.4-7.8 4 4 0 001.4 7.8zM468 83.5a4 4 0 10-1.4-7.7 4 4 0 001.3 7.7zM484.1 80.7a4 4 0 10-1.3-7.8 4 4 0 001.3 7.8zM500.3 77.9A4 4 0 10499 70a4 4 0 001.3 7.8zM516.5 75a4 4 0 10-1.3-7.8 4 4 0 001.3 7.8zM532.8 72.2a4 4 0 10-1.4-7.8 4 4 0 001.4 7.8zM549 69.3a4 4 0 10-1.4-7.7 4 4 0 001.4 7.7zM565.2 66.5a4 4 0 10-1.4-7.8 4 4 0 001.4 7.8zM470.1 95.9a4 4 0 10-1.4-7.8 4 4 0 001.4 7.8zM486.3 93a4 4 0 10-1.4-7.8 4 4 0 001.4 7.8zM472.3 108.2a4 4 0 10-1.4-7.8 4 4 0 001.4 7.8zM488.5 105.3a4 4 0 10-1.4-7.8 4 4 0 001.4 7.8zM504.7 102.5a4 4 0 10-1.4-7.8 4 4 0 001.4 7.8zM502.5 90.2a4 4 0 10-1.4-7.8 4 4 0 001.4 7.8zM518.7 87.3a4 4 0 10-1.4-7.7 4 4 0 001.4 7.7zM535 84.5a4 4 0 10-1.5-7.8 4 4 0 001.4 7.8zM551.1 81.6a4 4 0 10-1.3-7.7 4 4 0 001.3 7.7zM567.3 78.8A4 4 0 10566 71a4 4 0 001.3 7.8z"/>
  </g>
  <path d="M441.8 262.6a21.8 21.8 0 11-7.5-43 21.8 21.8 0 017.5 43zm-7.3-41.7a20.6 20.6 0 107.1 40.5 20.6 20.6 0 00-7-40.5z" fill="#000E14"/>
  <path d="M446 237.7l-6.2 1-1.1-6.1a2 2 0 00-4.1.7l1 6.2-6.1 1a2 2 0 10.7 4.2l6.2-1.1 1 6.2a2 2 0 104.2-.8l-1.1-6.1 6.2-1.1a2 2 0 00-.7-4.1z" fill="#000E14"/>
  <g opacity=".4" fill="#000">
    <path opacity=".4" d="M73.4 330a3.1 3.1 0 10-1-6.1 3.1 3.1 0 001 6zM71.2 317.2a3.1 3.1 0 10-1-6 3.1 3.1 0 001 6zM69 304.5a3.1 3.1 0 10-1.1-6.1 3.1 3.1 0 001 6.1zM66.7 291.8a3.1 3.1 0 10-1-6.2 3.1 3.1 0 001 6.2zM64.5 279a3.1 3.1 0 10-1-6.1 3.1 3.1 0 001 6.1zM62.2 266.3a3.1 3.1 0 10-1-6.1 3.1 3.1 0 001 6zM60 253.5a3.1 3.1 0 10-1-6 3.1 3.1 0 001 6zM83.1 328.3a3.1 3.1 0 10-1-6.1 3.1 3.1 0 001 6zM80.9 315.5a3.1 3.1 0 10-1.1-6 3.1 3.1 0 001 6zM78.6 302.8a3.1 3.1 0 10-1-6.1 3.1 3.1 0 001 6.1zM76.4 290a3.1 3.1 0 10-1-6 3.1 3.1 0 001 6zM74.2 277.3a3.1 3.1 0 10-1.1-6.1 3.1 3.1 0 001 6.1zM72 264.6a3.1 3.1 0 10-1.1-6.1 3.1 3.1 0 001 6zM69.7 251.8a3.1 3.1 0 10-1-6 3.1 3.1 0 001 6zM92.8 326.6a3.1 3.1 0 10-1-6.1 3.1 3.1 0 001 6zM90.5 313.8a3.1 3.1 0 10-1-6 3.1 3.1 0 001 6zM88.3 301.1a3.1 3.1 0 10-1-6.1 3.1 3.1 0 001 6.1zM86 288.4a3.1 3.1 0 10-1-6.2 3.1 3.1 0 001 6.2zM83.8 275.6a3.1 3.1 0 10-1-6 3.1 3.1 0 001 6zM81.6 262.9a3.1 3.1 0 10-1-6.1 3.1 3.1 0 001 6zM79.4 250.1a3.1 3.1 0 10-1.1-6 3.1 3.1 0 001 6zM102.5 324.9a3.1 3.1 0 10-1.1-6.1 3.1 3.1 0 001 6zM100.2 312.1a3.1 3.1 0 10-1-6 3.1 3.1 0 001 6zM112.1 323.2a3.1 3.1 0 10-1-6.1 3.1 3.1 0 001 6zM110 310.4a3.1 3.1 0 10-1.2-6 3.1 3.1 0 001.1 6zM107.7 297.7a3.1 3.1 0 10-1.1-6.1 3.1 3.1 0 001 6.1zM98 299.4a3.1 3.1 0 10-1-6.1 3.1 3.1 0 001 6.1zM95.8 286.7a3.1 3.1 0 10-1.1-6.2 3.1 3.1 0 001 6.2zM93.5 274a3.1 3.1 0 10-1-6.2 3.1 3.1 0 001 6.1zM91.3 261.2a3.1 3.1 0 10-1-6.1 3.1 3.1 0 001 6zM89 248.4a3.1 3.1 0 10-1-6 3.1 3.1 0 001 6z"/>
  </g>
  <path d="M306.2 71.6l-203 35.6a3.8 3.8 0 00-3.2 4.4l30.5 173.7a3.8 3.8 0 004.4 3.1L338 252.8a3.8 3.8 0 003.1-4.4L310.7 74.7a3.8 3.8 0 00-4.5-3.1zm33.4 177a2.3 2.3 0 01-1.8 2.7L134.6 287a2.3 2.3 0 01-2.6-1.8l-30.5-173.7a2.3 2.3 0 011.9-2.7l203.1-35.6a2.3 2.3 0 012.7 1.9l30.4 173.6z" fill="#000E14"/>
  <path d="M176.4 249.3a15.5 15.5 0 01-2.8 12 15.6 15.6 0 112.8-12z" fill="#000E14"/>
  <path d="M315 214.5l-120.4 21a2.6 2.6 0 001 5.2l120.3-21.1a2.6 2.6 0 00-.9-5.1z" fill="#3F3D56"/>
  <path d="M249.1 241.8l-51.8 9.1a2.6 2.6 0 001 5.1l51.7-9a2.6 2.6 0 10-.9-5.2zM376 185.2l-203.2 35.6a5.3 5.3 0 01-6.1-4.3L151 127.4a5.3 5.3 0 014.3-6.1l203.2-35.6a5.3 5.3 0 016 4.3l15.7 89a5.3 5.3 0 01-4.3 6.2zm-220.3-62a3.4 3.4 0 00-2.8 3.9l15.6 89.1a3.4 3.4 0 004 2.8l203-35.6a3.4 3.4 0 002.9-4l-15.7-89.1a3.4 3.4 0 00-4-2.8l-203 35.6z" fill="#000E14"/>
  <path d="M202.4 146.5a2.6 2.6 0 10.9 5.1l120.4-21a2.6 2.6 0 10-1-5.2l-120.3 21.1zM205 161.3a2.6 2.6 0 00.9 5.1l120.4-21a2.6 2.6 0 00-1-5.2L205 161.3zM207.6 176a2.6 2.6 0 10.9 5l51.8-9a2.6 2.6 0 00-1-5.1l-51.7 9zM416 217.1l-25.4-25.2 6.8.2a1 1 0 001-1.3 1 1 0 00-1-.6l-10.1-.3.4 10.2a1 1 0 00.6.9 1 1 0 001.3-1l-.3-6.8 25.4 25.2a1 1 0 00.7.3 1 1 0 00.8-.6 1 1 0 00-.2-1z" fill="#000E14"/>
  <path d="M320 320.3l-145 25.5a2.7 2.7 0 01-3.2-2.3l-6.3-36a2.7 2.7 0 012.2-3l145-25.5a2.7 2.7 0 013.1 2.2l6.3 36a2.7 2.7 0 01-2.2 3.1zm-152.1-14.8a1.6 1.6 0 00-1.4 1.9l6.3 36a1.6 1.6 0 002 1.3l145-25.4a1.6 1.6 0 001.3-2l-6.3-36a1.6 1.6 0 00-2-1.2l-145 25.4z" fill="#3F3D56"/>
  <path d="M195.5 330.7a11.1 11.1 0 10-3.8-21.9 11.1 11.1 0 003.8 21.9zM217.6 308a1.8 1.8 0 00-1.5 1.5 1.9 1.9 0 002.1 2.2l86-15a1.9 1.9 0 10-.7-3.7l-86 15zM219.5 319a1.9 1.9 0 00-1.5 1.4 1.8 1.8 0 002.1 2.2l37-6.5a1.9 1.9 0 00-.6-3.6l-37 6.5z" fill="#000E14"/>
  <path d="M488.8 158.6l64.4-11.3a2.7 2.7 0 013.2 2.2l11.7 67.2a2.7 2.7 0 01-2.2 3.1l-64.4 11.3a2.7 2.7 0 01-3.2-2.2l-11.8-67.1a2.7 2.7 0 012.3-3.2zm77 60.1a1.6 1.6 0 001.3-1.9l-11.8-67a1.6 1.6 0 00-1.9-1.4L489 159.7a1.6 1.6 0 00-1.4 1.9l11.8 67.1a1.6 1.6 0 001.9 1.3l64.4-11.3z" fill="#3F3D56"/>
  <path d="M549.8 208.4a1.9 1.9 0 00-.7-3.7l-37 6.5a1.9 1.9 0 10.7 3.7l37-6.5zM547.9 197.6a1.9 1.9 0 001.5-1.4 1.8 1.8 0 00-2.2-2.2l-37 6.5a1.8 1.8 0 00-1.4 1.4 1.9 1.9 0 002.1 2.2l37-6.5zM523.4 166.8a11.7 11.7 0 114 23 11.7 11.7 0 01-4-23z" fill="#000E14"/>
  <path d="M278 378.1h10l9.1-64.1 6.7-37.1-24-5.3-.1 33.2-1.7 73.3zM245.3 378.1h11.2l9.3-64.1 6.9-37.1-24.5-5.3-.2 33.2-2.7 73.3z" fill="#EDBBC2"/>
  <path d="M242.2 307.6l29.3 5.4 4.9-8.7 1 8.2 27.8 1 1-67.2-55.7-2.9-8.3 64.2zM233.3 388h22.3c.9 0 1.7-.3 2.4-1 .6-.6 1-1.4 1-2.3v-6.2a2.6 2.6 0 00-.9-1.9 2.8 2.8 0 00-2-.8c-2.7 2.6-5.8 2.4-9.2 0l-.2-.9c0-.4-.3-.8-.6-1.2l-1.1-.8a2.8 2.8 0 00-2.6.4l-6 4.6-1.7-.4a5.8 5.8 0 00-4.8 1c-.7.5-1.2 1.1-1.6 1.8-.3.8-.5 1.6-.5 2.4a5.1 5.1 0 001.6 3.7 5.6 5.6 0 004 1.6zM266 388h22.3c.9 0 1.7-.3 2.4-1 .6-.6 1-1.4 1-2.3v-6.2a2.6 2.6 0 00-.9-1.9 2.9 2.9 0 00-2-.8c-2.7 2.6-5.8 2.4-9.2 0l-.2-.9c0-.4-.3-.8-.6-1.2l-1-.8a2.8 2.8 0 00-2.7.4l-6 4.6-1.7-.4a5.8 5.8 0 00-4.8 1c-.6.5-1.2 1.1-1.6 1.8-.3.8-.5 1.6-.5 2.4a5.1 5.1 0 001.6 3.7 5.6 5.6 0 004 1.6z" fill="#000E14"/>
  <path d="M262.4 118.7a17.9 17.9 0 110-35.8 17.9 17.9 0 010 35.8z" fill="#EDBBC2"/>
  <path d="M272.8 130.8l16.6-4.4-11.7-25.2-15.7 11.1 10.8 18.5z" fill="#EDBBC2"/>
  <path d="M249 249.2c14.5-7.7 24.5-3 37.5 6.5 10 7.3 24.4-.8 35.6-3l-8.7-100.4a41 41 0 00-27.8-35.2l-15.9 7.3c-7.3 10.5-9.6 32.6-13.4 58.3-3.3 22.2-4.5 42-7.2 66.5z" fill="#005985"/>
  <path d="M266 235.8l-2.3 12a8.3 8.3 0 001.5 6.6 8.6 8.6 0 005.8 3.4 8.9 8.9 0 007.5-2.6 8.4 8.4 0 002.2-7.6l-2.9-12.8 13.9-52.7-2-18.8-19.8-.5a23.3 23.3 0 001.5 17.4l-5.4 55.6z" fill="#EDBBC2"/>
  <path d="M272.4 103.2c-1.5 0-2.8.4-4.3.6-5 .6-10.2-3-11.3-7.9a6 6 0 00-.6-1.9c-.8-1.2-2.6-1.5-4-1.2-1.5.3-2.9 1-4.3 1a6.6 6.6 0 01-5.7-3.1c-1.2-2-1.7-4.3-1.4-6.6l1 1.2c.5-1 .7-2 .5-3a3.5 3.5 0 013.4.8c1 .1.2-1.8 1-2.4.3-.2.7-.3 1.1-.2 2 0 3.7-1.6 5.3-2.8 2.9-2.2 6.1-3.7 9.6-4.4 2.4-.4 4.8-.5 7 .4a28.6 28.6 0 0112.7 15c1.2 3.7 1.2 7.6.1 11.3-.6 2-2.3 8.6-4.9 8.8-3.2.2-1.3-5.4-5.2-5.6z" fill="#000E14"/>
  <path d="M265 172c9.5-7.2 19.4-8.5 29.7-3.5l-4-27.4a13 13 0 00-12.8-11A12.8 12.8 0 00265 143v29z" fill="#FFD037"/>
</svg>
