<svg fill="none" xmlns="http://www.w3.org/2000/svg" viewBox="0 0 417 333">
    <path d="M37 200c-5-20-15-26-16-28l-3-5v3h-1v1h-1l-1 1a48 48 0 00-15 38c0 7 3 15 8 21l9 9 1 9 3 1v-9l1-2 3-3a40 40 0 0012-36z" fill="#4DB33D"/>
    <path d="M206 249l-4-1-12-7c-2-1-1-1-1-2l6-2h1l9 6a1 1 0 002 0l37-22a1 1 0 001-1v-42a1 1 0 00-1-1l-37-22a1 1 0 00-2 0l-37 22v43a1 1 0 000 1l11 6c5 3 8-1 8-4v-41a1 1 0 012-1h4a1 1 0 011 1v41c0 8-4 12-11 12l-8-2-10-6a8 8 0 01-4-6v-43a8 8 0 014-7l37-21a8 8 0 018 0l37 21a8 8 0 014 7v43a8 8 0 01-4 6l-37 21-4 1zm12-29c-17 0-20-7-20-14a1 1 0 011-1h5l1 1c1 5 3 8 13 8 8 0 11-2 11-6 0-3-1-4-13-6-10-1-17-3-17-11 0-7 7-12 17-12 12 0 18 4 19 13v1a1 1 0 01-1 0h-5a1 1 0 01-1 0c-1-5-4-7-12-7s-9 3-9 5c0 3 1 4 13 5 11 1 16 4 16 12s-6 12-18 12z" fill="#539E43"/>
    <path d="M90 83a5 5 0 00-2-4L48 57l-2-1-2 1L4 79a5 5 0 00-3 4v61a2 2 0 002 2 2 2 0 002 0l24-13a5 5 0 002-5v-28a4 4 0 013-4l10-6h4l10 6a5 5 0 013 4v28a4 4 0 002 4l24 13a3 3 0 002 0 2 2 0 002-2l-1-60zM281 0a3 3 0 00-2 0 2 2 0 00-1 2v60a2 2 0 01-1 2 2 2 0 01-2 0l-10-6a5 5 0 00-5 0l-39 22a5 5 0 00-3 5v45a5 5 0 003 4l39 22a5 5 0 005 0l40-22a5 5 0 002-4V17a5 5 0 00-2-4L281 0zm-3 115a1 1 0 01-1 1l-14 7a1 1 0 01-1 0l-14-7V99a1 1 0 011-1l13-7a1 1 0 011 0l14 7a1 1 0 011 1v16zm135-16a5 5 0 003-4V84a5 5 0 00-3-4l-39-22a5 5 0 00-5 0l-39 22a5 5 0 00-3 4v45a5 5 0 003 4l39 22a5 5 0 005 0l23-13a2 2 0 002-2 2 2 0 00-2-2l-39-22a2 2 0 01-2-3v-13a2 2 0 012-3l12-7a2 2 0 012 0l13 7a2 2 0 011 2v11a2 2 0 001 3 2 2 0 003 0l23-14z" fill="var(--theme)"/>
    <path d="M371 97l8 4a1 1 0 011 1v8a1 1 0 01-1 2l-7 4a1 1 0 01-1 0l-8-4a1 1 0 010-1v-9a1 1 0 010-1l8-4z" fill="#539E43"/>
    <path d="M189 134l9-1V81l-6-2-33-2 2 59h1l27-2z" fill="#539E43"/>
    <path d="M120 134l-9-1V81l6-2 32-2-1 59h-2l-26-2z" fill="#539E43"/>
    <path d="M196 80l-39-23h-2l-44 75 1 1 40 22a5 5 0 004 1l41-75-1-1z" fill="#4f8843"/>
    <path d="M197 133v-2l-41-74-4 1-39 22 42 76h2l40-23z" fill="#519143"/>
    <path d="M85 315v-32h40v-2H85v-29h43v-2H83v67h45v-2H85zm79-46l-17 22-16-22h-2l17 23-19 25h2l18-24 18 24h3l-19-25 17-23h-2zm10 64v-30c1 4 3 8 6 11 4 2 8 4 13 4a19 19 0 0015-8l4-8c2-6 2-13 0-20l-4-7a19 19 0 00-15-7l-7 1c-2 0-4 1-5 3-4 2-6 6-7 10v-13h-2v64h2zm19-17a18 18 0 01-14-6c-4-4-5-10-5-18a28 28 0 015-16 18 18 0 0114-7 17 17 0 0114 7c1 3 3 5 3 8 2 8 1 17-3 24a16 16 0 01-14 8zm30 1v-28l2-7c0-2 1-5 3-7l6-4 8-2v-1a23 23 0 00-12 3 14 14 0 00-6 10v-12h-2v48h1zm22-24h40l-1-9-4-9a19 19 0 00-16-7 19 19 0 00-15 6 25 25 0 00-6 19l1 10 4 8 6 5 10 2c5 0 10-2 14-5s6-8 6-13h-1c-1 5-3 9-7 12-3 3-8 4-12 4l-9-2-6-5-3-7-1-9zm38-2h-38l2-9 4-7a17 17 0 0113-6l8 2c3 1 5 3 6 5l4 7 1 8zm41-8h2a14 14 0 00-5-12c-4-3-8-4-13-3-2-1-5 0-7 1l-5 2c-2 2-3 3-3 5l-1 4 1 6c2 1 3 3 5 3l4 2 13 3 5 2 3 3 2 6-2 5-3 3-5 2-6 1c-4 0-9-1-12-4a14 14 0 01-5-12h-2a16 16 0 005 13c4 3 9 5 15 4h6l5-2a12 12 0 006-11l-2-5c0-2-2-3-3-4l-5-2-12-3-6-2-4-3-1-5v-3l2-3 4-3 8-2 7 1 5 3 2 4 2 6zm43 0h2a14 14 0 00-5-12c-4-2-8-4-13-3-2-1-5 0-7 1l-5 2-3 5-1 4 1 6c2 1 3 3 5 3l5 2 12 3 5 2 4 3 1 6-1 5-4 3-5 2-5 1c-5 0-10-1-13-4a15 15 0 01-5-12h-2a17 17 0 005 13c4 3 9 5 15 4h6l6-2a12 12 0 005-11 10 10 0 00-5-9l-5-2-12-3-6-2-4-3-1-5v-3l2-3 4-3 8-2 7 1 5 3 3 4 1 6z" fill="var(--theme)"/>
    <path d="M416 210c0-6-7-11-19-15 3-11 2-20-3-23l-4-1v4h2c2 2 3 7 2 14v5l-12-2-7-9c6-5 11-8 15-8v-4c-5 0-12 4-18 10-7-6-13-10-18-10v4c4 0 9 3 15 8l-8 9-11 2-1-5c-1-7 0-12 3-13l2-1v-4l-4 1c-5 3-6 12-4 23-11 4-18 9-18 15s7 12 18 15c-2 11-1 20 4 23l4 1c5 0 11-3 18-9 6 6 13 9 18 9l4-1c5-3 6-12 4-23 11-3 18-9 18-15zm-23-12l-3 7a85 85 0 00-5-8l8 1zm-9 19l-4 7a94 94 0 01-16 0 99 99 0 01-8-14 93 93 0 018-14 94 94 0 0116 0 99 99 0 018 14l-4 7zm6-2l3 7-8 2a98 98 0 005-9zm-18 19l-5-6a112 112 0 0010 0l-5 6zm-14-10l-7-2 3-7a84 84 0 004 9zm14-38l5 6a111 111 0 00-10 0l5-6zm-14 11a100 100 0 00-4 8l-3-7 7-1zm-16 22c-6-2-10-6-10-9s4-6 10-9l5-2 4 11-4 11-5-2zm10 26c-3-1-4-7-3-14l1-5 12 2 7 9c-6 5-11 8-15 8h-2zm43-14c0 7-1 12-3 14h-2c-4 0-9-3-15-8l7-9 12-2 1 5zm6-12l-5 2-4-11 4-11 6 2c6 3 10 6 10 9s-4 7-11 9z" fill="#61DAFB"/>
    <path d="M372 218a8 8 0 100-16 8 8 0 000 16z" fill="#61DAFB"/>
</svg>
